<svg id = 'google_logo' xmlns="http://www.w3.org/2000/svg" viewBox="0 0 512 512" style="enable-background:new 0 0 512 512" xml:space="preserve">
    <path style="fill:#d50707" d="M341.992 130.319c9.727 6.12 22.545 5.897 30.391-2.504l37.128-39.61c7.846-8.4 6.319-20.3-3.395-26.445l-.493-.45c-41.424-31.888-93.304-50.86-149.624-50.86-94.045 0-175.701 52.892-216.948 130.529l74.936 60.015c22.084-56.952 77.261-97.403 142.012-97.403 31.635 0 60.944 9.722 85.271 26.254l.722.474z"/>
    <path style="fill:#ffd41d" d="M103.591 256c0-19.423 3.772-37.927 10.398-55.009l-74.937-60.014C20.821 175.295 10.45 214.43 10.45 256.001c0 41.764 10.457 81.076 28.846 115.506l74.492-61.045c-6.49-16.938-10.197-35.246-10.197-54.462z"/>
    <path style="fill:#1eb615" d="M340.735 382.582c-24.241 16.262-53.346 25.834-84.731 25.834-64.963 0-120.28-40.713-142.218-97.957l-74.493 61.044c41.332 77.378 122.855 130.048 216.703 130.048 60.95 0 116.667-22.254 159.595-59.016l-74.856-59.953z"/>
    <path style="fill:#0084ff" d="M500.659 235.085c-1.514-11.394-12.157-20.716-23.651-20.716H286.776c-11.494 0-20.898 9.404-20.898 20.898v44.992c0 11.494 9.404 20.898 20.898 20.898h93.931c10.822 0 18.16 7.401 14.568 16.784-11.76 26.351-30.808 48.716-54.542 64.641l74.86 59.953c52.59-45.039 85.956-111.87 85.956-186.535.001-14.207-.89-20.915-.89-20.915z"/>
    <path d="M324.438 242.659h-4.678c-5.771 0-10.449 4.678-10.449 10.449s4.678 10.449 10.449 10.449h4.678c5.771 0 10.449-4.678 10.449-10.449 0-5.77-4.678-10.449-10.449-10.449zM449.284 242.659h-91.043c-5.771 0-10.449 4.678-10.449 10.449s4.678 10.449 10.449 10.449h91.043c5.771 0 10.449-4.678 10.449-10.449 0-5.77-4.678-10.449-10.449-10.449z"/>
    <path d="M511.017 233.709c-2.219-16.704-17.158-29.789-34.008-29.789H286.776c-17.285 0-31.347 14.062-31.347 31.347v44.992c0 17.285 14.062 31.347 31.347 31.347h93.931c3.253 0 4.855 1.164 5.035 1.552.015.067.011.353-.154.848-10.898 24.254-28.416 44.962-50.676 59.899l-.003.002c-23.464 15.74-50.749 24.059-78.905 24.059-58.308 0-111.537-36.663-132.455-91.234l-.002-.007c-6.308-16.464-9.506-33.531-9.506-50.725 0-17.415 3.26-34.651 9.69-51.229l.008-.025c21.378-55.104 73.29-90.708 132.26-90.708 28.409 0 55.864 8.453 79.399 24.447l.122.083.721.475c.062.04.123.08.186.119 6.078 3.825 12.97 5.847 19.929 5.847.001 0 0 0 0 0 9.198 0 17.601-3.574 23.649-10.048l37.141-39.624c5.871-6.285 8.647-14.498 7.615-22.531-.992-7.719-5.425-14.71-12.218-19.324a9.842 9.842 0 0 0-.547-.451C366.931 18.338 312.987 0 255.999 0 161.081 0 74.417 52.14 29.823 136.075c-.006.011-.01.023-.017.034C10.308 172.826.001 214.283.001 256.002c0 41.938 10.399 83.575 30.071 120.415l.004.008C74.746 460.051 161.313 512 255.997 512c60.952 0 120.03-21.84 166.356-61.5l.038-.029C479.339 401.7 511.999 330.818 511.999 256c0-14.729-.942-21.989-.982-22.291zM255.999 20.898c52.192 0 101.595 16.742 142.907 48.428 0 0 1.137.892 1.625 1.264 2.147 1.638 3.264 3.01 3.505 4.878.239 1.867-.528 3.858-2.147 5.592l-37.141 39.624c-2.647 2.834-6.023 3.428-8.389 3.428-2.941 0-6.033-.917-8.717-2.584l-.559-.369c-26.998-18.33-58.493-28.018-91.082-28.018-33.484 0-65.641 10.107-92.993 29.23-22.822 15.956-40.985 37.189-53.117 61.953l-57.426-45.991C94.504 65.672 171.708 20.898 255.999 20.898zM42.656 157.251l58.966 47.224c-5.63 16.755-8.479 34.051-8.479 51.525 0 17.271 2.799 34.405 8.329 51.04L42.81 355.111C28.455 324.228 20.9 290.23 20.9 256.002c-.001-34.078 7.502-67.955 21.756-98.751zm213.341 333.851c-84.1 0-161.232-44.636-203.325-117.055l57.042-46.744c12.082 24.829 30.216 46.129 53.042 62.152 27.407 19.24 59.651 29.41 93.248 29.41 29.745 0 58.637-8.084 84.036-23.452l58.901 47.174c-40.914 31.368-91.196 48.515-142.944 48.515zm159.233-62.245-57.359-45.938c20.26-16.25 36.362-37.002 46.947-60.72.077-.172.149-.347.216-.523 2.711-7.082 1.95-14.512-2.09-20.383-4.56-6.629-12.873-10.586-22.238-10.586h-93.931c-5.762 0-10.449-4.687-10.449-10.449v-44.992c0-5.762 4.687-10.449 10.449-10.449h190.232c6.257 0 12.469 5.442 13.29 11.618.007.063.802 6.434.802 19.564.002 65.833-27.554 128.337-75.869 172.858z"/>
</svg>
