<?xml version="1.0" encoding="utf-8"?><svg viewBox="0 0 512 512" xmlns="http://www.w3.org/2000/svg" xmlns:xlink="http://www.w3.org/1999/xlink"><style>:root>svg{display:none}:root>svg:target{display:block}</style><svg id ="icon-dashboard" xmlns="http://www.w3.org/2000/svg" viewBox="0 0 512.001 512.001" style="enable-background:new 0 0 512.001 512.001" xml:space="preserve">
    <path style="fill:#ededed" d="M503.916 256c0 136.92-110.996 247.916-247.916 247.916S8.084 392.919 8.084 256 119.08 8.084 256 8.084 503.916 119.08 503.916 256z"/>
    <path style="fill:#c6c6c6" d="M450.021 256c0 107.155-86.866 194.021-194.021 194.021S61.979 363.155 61.979 256 148.845 61.979 256 61.979 450.021 148.845 450.021 256z"/>
    <path style="fill:#969696" d="M396.126 256c0 77.39-62.737 140.126-140.126 140.126S115.874 333.39 115.874 256 178.61 115.874 256 115.874 396.126 178.61 396.126 256z"/>
    <path style="fill:#ededed" d="M316.003 256c0 33.139-26.864 60.003-60.003 60.003S195.997 289.139 195.997 256s26.864-60.003 60.003-60.003 60.003 26.864 60.003 60.003z"/>
    <path style="fill:#73a4bc" d="M256 169.768c-47.625 0-86.232 38.607-86.232 86.232s38.607 86.232 86.232 86.232 86.232-38.607 86.232-86.232-38.607-86.232-86.232-86.232zm0 118.569c-17.86 0-32.337-14.477-32.337-32.337S238.14 223.663 256 223.663 288.337 238.14 288.337 256 273.86 288.337 256 288.337z"/>
    <path style="fill:#98c7e5" d="M336.337 287.329c-12.539 32.129-43.768 54.903-80.337 54.903s-67.797-22.774-80.337-54.903h72.299a32.369 32.369 0 0 0 8.038 1.008c2.775 0 5.468-.35 8.038-1.008h72.299z"/>
    <path style="fill:#ff6029" d="M223.663 256c0 17.86 14.477 32.337 32.337 32.337v96.56c0 6.287-5.363 11.268-11.629 10.754C172.422 389.74 115.874 329.474 115.874 256s56.549-133.74 128.497-139.651c6.266-.515 11.629 4.466 11.629 10.753v96.561c-17.86 0-32.337 14.477-32.337 32.337z"/>
    <path style="fill:#b7441c" d="M247.962 287.329H119.393A140.604 140.604 0 0 1 115.874 256c0-3.628.15-7.221.421-10.779h101.547c3.671 0 6.498 3.21 6.057 6.855a32.788 32.788 0 0 0-.236 3.924c0 15.084 10.329 27.755 24.299 31.329z"/>
    <path style="fill:#ffbc00" d="M256 61.979v161.684c-17.86 0-32.337 14.477-32.337 32.337H73.075c-6.168 0-11.125-5.169-10.77-11.327C68.168 142.791 152.647 61.979 256 61.979zm16.707.724A196.413 196.413 0 0 0 256 61.979v161.684a32.8 32.8 0 0 1 3.022.139c7.386.686 13.685-5.351 13.685-12.768V62.703z"/>
    <path style="fill:#e0a000" d="M288.337 64.677V256c0-17.86-14.478-32.337-32.337-32.337S223.663 238.14 223.663 256V64.677a195.15 195.15 0 0 1 64.674 0z"/>
    <path style="fill:#92b703" d="M279.557 9.189c118.117 11.134 212.12 105.137 223.254 223.254 1.191 12.639-8.778 23.557-21.474 23.557h-193c0-17.86-14.477-32.337-32.337-32.337v-193c0-12.696 10.919-22.665 23.557-21.474z"/>
    <path d="M278.623 394.411a8.083 8.083 0 0 1 6.178-9.619c49.985-10.886 89.551-50.167 100.797-100.075a8.084 8.084 0 0 1 15.773 3.554c-12.622 56.014-57.029 100.102-113.13 112.319a8.085 8.085 0 0 1-9.618-6.179zm225.255-114.53c-4.425-.58-8.484 2.545-9.061 6.972-15.518 119.137-117.971 208.978-238.31 208.978-132.523 0-240.338-107.815-240.338-240.338 0-120.34 89.841-222.792 208.978-238.312 4.427-.577 7.55-4.633 6.973-9.061s-4.65-7.55-9.061-6.972C161.822 9.125 105.452 39.116 64.33 85.596 22.846 132.484 0 192.822 0 255.493c0 68.515 26.681 132.93 75.129 181.377S187.991 512 256.507 512c62.671 0 123.009-22.846 169.898-64.331 46.479-41.122 76.47-97.491 84.447-158.729a8.084 8.084 0 0 0-6.974-9.059zM248.422 53.151V29.696c0-8.344 3.54-16.353 9.713-21.97A29.708 29.708 0 0 1 280.871.13c122.32 11.53 219.469 108.679 231 231a29.707 29.707 0 0 1-7.596 22.735 29.77 29.77 0 0 1-21.971 9.713H350.656c-3.887 45.669-40.396 82.179-86.066 86.066v35.011a18.963 18.963 0 0 1-6.099 13.908 18.893 18.893 0 0 1-14.3 4.923c-37.024-3.041-71.361-19.785-96.687-47.146-23.633-25.532-37.414-58.211-39.277-92.764h-35.02a19.007 19.007 0 0 1-13.765-5.935c-3.535-3.747-5.395-8.836-5.098-13.963C60.343 139.454 144.87 57.239 248.422 53.151zm0 242.02c-15.852-3.225-28.368-15.741-31.593-31.593h-92.401c4.003 64.791 55.748 118.427 121.089 123.795a2.659 2.659 0 0 0 2.021-.702c.331-.305.885-.972.885-2.017v-89.483zm85.995-31.593h-38.234c-3.225 15.853-15.74 28.368-31.592 31.593v38.232c36.748-3.784 66.041-33.078 69.826-69.825zm-69.826-47.761c15.852 3.225 28.367 15.74 31.592 31.592h186.121c3.859 0 7.415-1.573 10.014-4.427 2.588-2.845 3.816-6.515 3.456-10.335-10.804-114.6-101.82-205.617-216.42-216.42-3.822-.36-7.49.868-10.335 3.456-2.854 2.599-4.427 6.155-4.427 10.014v186.12h-.001zm-32.404 39.676c0 13.41 10.909 24.319 24.319 24.319 13.41 0 24.318-10.909 24.318-24.319s-10.908-24.318-24.318-24.318c-13.408 0-24.319 10.908-24.319 24.318zM70.486 244.609a2.55 2.55 0 0 0 .716 1.934 2.74 2.74 0 0 0 2.006.866H216.83c3.225-15.852 15.742-28.368 31.593-31.592V69.333c-94.991 4.077-172.43 79.595-177.937 175.276zm2.264 41.95a8.084 8.084 0 1 0-15.945 2.674c7.83 46.672 32.067 89.394 68.247 120.297 36.588 31.251 83.272 48.463 131.456 48.463s94.868-17.211 131.455-48.463c36.181-30.903 60.417-73.626 68.247-120.297a8.083 8.083 0 0 0-6.634-9.31 8.075 8.075 0 0 0-9.311 6.636c-15.094 89.968-92.374 155.266-183.756 155.266S87.844 376.527 72.75 286.559z"/>
</svg><svg id="icon-goals" xmlns="http://www.w3.org/2000/svg" viewBox="0 0 512 512" style="enable-background:new 0 0 512 512" xml:space="preserve">
    <path style="fill:#fe5f1a" d="M223.319 73.532V503.83c118.823 0 215.149-96.326 215.149-215.149S342.142 73.532 223.319 73.532z"/>
    <path style="fill:#fe834d" d="M405.787 288.681c0-118.823-81.693-215.149-182.468-215.149-118.823 0-215.149 96.326-215.149 215.149S104.496 503.83 223.319 503.83c100.775 0 182.468-96.326 182.468-215.149z"/>
    <circle style="fill:#fff" cx="223.319" cy="288.681" r="157.957"/>
    <circle style="fill:#fea680" cx="223.319" cy="288.681" r="100.766"/>
    <circle style="fill:#fe5f1a" cx="223.319" cy="288.681" r="43.574"/>
    <path style="fill:#fe5f1a" d="m491.067 20.933-65.475 34.662 53.92 38.514 11.555-11.555c17.017-17.014 17.017-44.605 0-61.621z"/>
    <path style="fill:#fe834d" d="M429.444 20.933 417.89 32.487l23.109 38.514 50.069-50.069c-17.018-17.016-44.607-17.016-61.624.001z"/>
    <path style="fill:#fedc3d" d="m265.243 246.757 44.349 17.274L456.403 117.22l-30.811-46.218z"/>
    <path style="fill:#fff1b1" d="M394.78 55.597 247.969 202.408l17.274 44.349L433.295 78.705z"/>
    <path style="fill:#b9b9b9" d="m448.702 63.298-19.258 3.852-3.852 19.258 30.811 30.812 23.11-23.109z"/>
    <path transform="rotate(134.999 421.73 59.457)" style="fill:#dcdcdc" d="M405.389 37.671h32.681v43.574h-32.681z"/>
    <path style="fill:#ffdbcc" d="m247.968 202.408-12.667 44.335 7.276 22.68 22.68 7.276 44.335-12.667z"/>
    <path style="fill:#737373" d="m223.319 288.681 41.938-11.982-29.956-29.956z"/>
    <path d="M512 51.745c0-13.822-5.383-26.816-15.156-36.589C487.07 5.381 474.076 0 460.255 0c-13.822 0-26.816 5.381-36.588 15.155l-34.659 34.658-48.661 48.661c-35.156-21.678-75.469-33.112-117.028-33.112C100.18 65.362 0 165.543 0 288.681S100.18 512 223.319 512s223.319-100.181 223.319-223.319c0-31.959-6.614-62.822-19.655-91.734a8.168 8.168 0 0 0-10.806-4.088 8.17 8.17 0 0 0-4.087 10.808c12.082 26.786 18.209 55.39 18.209 85.015 0 114.129-92.851 206.979-206.979 206.979S16.34 402.81 16.34 288.681 109.191 81.702 223.319 81.702c37.215 0 73.346 9.889 105.127 28.673l-30.084 30.084c-23.141-11.724-48.949-17.906-75.043-17.906-91.603 0-166.128 74.524-166.128 166.128s74.524 166.128 166.128 166.128 166.128-74.524 166.128-166.128c0-15.686-2.192-31.227-6.515-46.19a8.17 8.17 0 0 0-15.699 4.536 150.016 150.016 0 0 1 5.873 41.654c0 82.592-67.194 149.787-149.787 149.787S73.532 371.273 73.532 288.681s67.194-149.787 149.787-149.787a150.09 150.09 0 0 1 62.809 13.799l-31.619 31.619a108.655 108.655 0 0 0-31.191-4.567c-60.067 0-108.936 48.868-108.936 108.936s48.868 108.936 108.936 108.936c58.039 0 105.826-45.368 108.791-103.282a8.17 8.17 0 0 0-7.742-8.578c-4.505-.229-8.347 3.235-8.578 7.741-2.52 49.222-43.139 87.779-92.472 87.779-51.057 0-92.596-41.538-92.596-92.596s41.538-92.596 92.596-92.596a92.5 92.5 0 0 1 17.876 1.756c-.069.102-.131.208-.195.313a8.087 8.087 0 0 0-.486.922c-.023.051-.049.1-.071.153-.126.3-.236.605-.326.915-.007.02-10.625 37.182-10.625 37.182a51.618 51.618 0 0 0-6.176-.389c-28.531 0-51.745 23.213-51.745 51.745s23.212 51.745 51.745 51.745c17.693 0 33.975-8.906 43.556-23.821a8.17 8.17 0 0 0-2.459-11.289 8.17 8.17 0 0 0-11.29 2.46c-6.559 10.211-17.702 16.309-29.806 16.309-19.521 0-35.404-15.882-35.404-35.404s15.883-35.404 35.404-35.404c.535 0 1.069.029 1.602.053l-9.459 33.107a8.169 8.169 0 0 0 10.101 10.099l86.273-24.65a8.183 8.183 0 0 0 3.533-2.077L462.179 123l34.666-34.666C506.619 78.56 512 65.566 512 51.745zm-55.597 53.921-50.068-50.069 11.554-11.554 50.069 50.068-11.555 11.555zM309.591 252.477l-19.257-19.257L425.592 97.963l19.257 19.258-135.258 135.256zm-41.956 15.045-23.157-23.158 7.532-26.36 41.985 41.986-26.36 7.532zm79.611-152.837.05-.05L394.78 67.15l19.257 19.258L278.78 221.664l-19.257-19.258 87.723-87.721zM239.343 262.339l10.318 10.318-14.446 4.128 4.128-14.446zM485.29 76.778l-5.777 5.778-50.069-50.069 5.777-5.777c6.688-6.688 15.578-10.371 25.035-10.371s18.347 3.683 25.035 10.371c6.688 6.686 10.37 15.577 10.37 25.035s-3.683 18.348-10.371 25.033z"/>
</svg><svg id="icon-logout" xmlns="http://www.w3.org/2000/svg" viewBox="0 0 512 512" style="enable-background:new 0 0 512 512" xml:space="preserve">
    <path style="fill:#f4a026" d="M20.677 256 188.13 383.348l-13.128-89.276h196.854v-78.769H175.002l13.128-86.651z"/>
    <path style="fill:#61acd2" d="M121.108 446.359H438.81V65.641H121.108V13.128h344.027c14.501 0 26.188 11.755 26.188 26.256v433.231c0 14.501-11.687 26.256-26.188 26.256H121.108v-52.512z"/>
    <path d="M188.131 396.476a13.128 13.128 0 0 0 12.988-15.039L190.201 307.2h182.311c7.249 0 12.472-5.879 12.472-13.128v-78.769c0-7.249-5.222-13.128-12.472-13.128H190.268l10.841-71.555a13.13 13.13 0 0 0-20.927-12.416L12.729 245.55a13.132 13.132 0 0 0 0 20.9l167.453 127.348a13.126 13.126 0 0 0 7.949 2.678zm-26.118-100.494 8.447 57.433L42.365 256l127.933-97.293-8.276 54.629a13.117 13.117 0 0 0 3.026 10.526 13.123 13.123 0 0 0 9.954 4.569h183.727v52.513H175.002a13.13 13.13 0 0 0-12.989 15.038z"/>
    <path d="M465.135 0H121.764c-7.249 0-13.785 5.879-13.785 13.128v52.513c0 7.249 6.535 13.128 13.785 13.128h303.918v354.462H121.764c-7.249 0-13.785 5.879-13.785 13.128v52.513c0 7.249 6.535 13.128 13.785 13.128h343.371c22.041 0 39.316-17.668 39.316-39.385V39.385C504.451 17.668 487.176 0 465.135 0zm13.06 472.615c0 7.117-5.625 13.128-13.06 13.128H134.236v-26.256h305.231c7.249 0 12.472-5.879 12.472-13.128V65.641c0-7.249-5.222-13.128-12.472-13.128H134.236V26.256h330.899c7.435 0 13.06 6.011 13.06 13.128v433.231z"/>
</svg><svg id="icon-settings" xmlns="http://www.w3.org/2000/svg" viewBox="0 0 512.003 512.003" style="enable-background:new 0 0 512.003 512.003" xml:space="preserve">
    <circle style="fill:#f4ad47" cx="256" cy="256.001" r="86.184"/>
    <path style="fill:#f4ad47" d="m474.634 288.397 25.86-15.948v-32.895l-25.86-15.948h-28.823a191.206 191.206 0 0 0-9.207-34.469l24.937-14.396 14.421-26.742-16.447-28.486-30.369-.882-24.977 14.419a193.792 193.792 0 0 0-25.216-25.216l14.421-24.977-.882-30.369-28.487-16.448-26.742 14.421-14.398 24.937a191.123 191.123 0 0 0-34.469-9.207V37.367l-15.948-25.86h-32.895l-15.948 25.86V66.19a191.206 191.206 0 0 0-34.469 9.207L174.738 50.46l-26.743-14.42-28.486 16.447-.882 30.369 14.421 24.977a193.792 193.792 0 0 0-25.216 25.216l-24.977-14.421-30.369.882-16.447 28.486 14.421 26.742 24.937 14.396a191.063 191.063 0 0 0-9.207 34.469H37.366l-25.86 15.95v32.895l25.86 15.948h28.823a191.206 191.206 0 0 0 9.207 34.469l-24.937 14.398-14.421 26.742 16.447 28.486 30.369.882 24.977-14.421a193.792 193.792 0 0 0 25.216 25.216l-14.421 24.977.882 30.369 28.486 16.447 26.742-14.421 14.398-24.937a191.123 191.123 0 0 0 34.469 9.207v28.823l15.948 25.86h32.895l15.948-25.86V445.81a191.206 191.206 0 0 0 34.469-9.207l14.398 24.937 26.742 14.421 28.486-16.447.882-30.369-14.421-24.977a193.792 193.792 0 0 0 25.216-25.216l24.977 14.421 30.369-.882 16.447-28.486-14.421-26.742-24.937-14.398a191.04 191.04 0 0 0 9.207-34.469l28.826.001zM256 400.864c-80.006 0-144.863-64.857-144.863-144.863S175.994 111.139 256 111.139s144.863 64.857 144.863 144.863S336.006 400.864 256 400.864z"/>
    <path style="fill:#231f20" d="M256 99.633c-86.222 0-156.369 70.147-156.369 156.369S169.778 412.37 256 412.37s156.369-70.147 156.369-156.369S342.222 99.633 256 99.633zm0 289.726c-73.534 0-133.357-59.823-133.357-133.357S182.466 122.644 256 122.644s133.357 59.823 133.357 133.357S329.534 389.359 256 389.359z"/>
    <path style="fill:#231f20" d="m506.533 229.761-25.859-15.948a11.5 11.5 0 0 0-6.039-1.713h-19.341a203.804 203.804 0 0 0-4.736-17.734l16.736-9.663a11.517 11.517 0 0 0 4.374-4.503l14.421-26.742a11.509 11.509 0 0 0-.163-11.214l-16.449-28.488a11.506 11.506 0 0 0-9.629-5.748l-30.369-.882c-2.143-.06-4.24.47-6.086 1.536l-16.778 9.688a205.902 205.902 0 0 0-12.965-12.964l9.688-16.78a11.51 11.51 0 0 0 1.536-6.086l-.883-30.368a11.506 11.506 0 0 0-5.749-9.63l-28.486-16.447a11.504 11.504 0 0 0-11.214-.163l-26.743 14.421a11.502 11.502 0 0 0-4.504 4.375l-9.662 16.736a203.521 203.521 0 0 0-17.733-4.736V37.367c0-2.133-.593-4.224-1.711-6.04L282.24 5.467a11.506 11.506 0 0 0-9.794-5.465h-32.893a11.502 11.502 0 0 0-9.793 5.467l-15.948 25.86a11.5 11.5 0 0 0-1.713 6.039v19.341a203.448 203.448 0 0 0-17.734 4.736l-9.663-16.736a11.52 11.52 0 0 0-4.503-4.375l-26.742-14.421a11.504 11.504 0 0 0-11.214.163l-28.486 16.447a11.506 11.506 0 0 0-5.748 9.63l-.882 30.371c-.062 2.131.47 4.24 1.536 6.086l9.688 16.78a205.353 205.353 0 0 0-12.964 12.964l-16.778-9.688a11.435 11.435 0 0 0-6.086-1.536l-30.369.882a11.504 11.504 0 0 0-9.63 5.748l-16.447 28.486a11.504 11.504 0 0 0-.163 11.214l14.421 26.742a11.506 11.506 0 0 0 4.375 4.503l16.736 9.663a203.258 203.258 0 0 0-4.736 17.734H37.366a11.5 11.5 0 0 0-6.039 1.713l-25.86 15.947A11.501 11.501 0 0 0 0 239.554v32.895c0 3.991 2.068 7.699 5.467 9.793l25.86 15.948a11.5 11.5 0 0 0 6.039 1.713h19.341a204.066 204.066 0 0 0 4.736 17.734L44.707 327.3a11.52 11.52 0 0 0-4.375 4.503l-14.421 26.742a11.509 11.509 0 0 0 .163 11.214l16.447 28.488a11.512 11.512 0 0 0 9.63 5.749l30.371.882c2.143.063 4.24-.47 6.086-1.536l16.78-9.688a206.421 206.421 0 0 0 12.964 12.964l-9.688 16.78a11.5 11.5 0 0 0-1.536 6.086l.882 30.369a11.504 11.504 0 0 0 5.748 9.63l28.488 16.447a11.506 11.506 0 0 0 11.214.163l26.742-14.421a11.506 11.506 0 0 0 4.503-4.375l9.663-16.736a203.258 203.258 0 0 0 17.734 4.736v19.341c0 2.133.593 4.224 1.713 6.04l15.948 25.859a11.506 11.506 0 0 0 9.793 5.465h32.893c3.991 0 7.699-2.068 9.793-5.465l15.95-25.859a11.503 11.503 0 0 0 1.713-6.04v-19.341a204.236 204.236 0 0 0 17.733-4.736l9.662 16.736a11.522 11.522 0 0 0 4.504 4.375l26.743 14.421a11.51 11.51 0 0 0 11.214-.163l28.486-16.447a11.512 11.512 0 0 0 5.749-9.63l.882-30.369c.062-2.131-.47-4.24-1.536-6.086l-9.688-16.78a205.902 205.902 0 0 0 12.965-12.964l16.778 9.688a11.503 11.503 0 0 0 6.086 1.536l30.369-.882a11.504 11.504 0 0 0 9.629-5.749l16.449-28.488a11.504 11.504 0 0 0 .163-11.214l-14.421-26.742a11.517 11.517 0 0 0-4.374-4.503l-16.736-9.663a203.804 203.804 0 0 0 4.736-17.734h19.341c2.133 0 4.225-.593 6.039-1.713l25.859-15.948a11.508 11.508 0 0 0 5.467-9.793v-32.895a11.517 11.517 0 0 0-5.471-9.793zm-17.544 36.266-17.617 10.864h-25.56a11.51 11.51 0 0 0-11.345 9.584 180.042 180.042 0 0 1-8.654 32.396 11.508 11.508 0 0 0 5.037 13.961l22.111 12.766 9.824 18.218-10.026 17.363-20.69.601-22.15-12.79a11.51 11.51 0 0 0-14.602 2.61 182.784 182.784 0 0 1-23.719 23.719 11.507 11.507 0 0 0-2.612 14.603l12.79 22.151-.601 20.69-17.362 10.026-18.219-9.824-12.764-22.111a11.51 11.51 0 0 0-13.961-5.037 180.33 180.33 0 0 1-32.396 8.654 11.505 11.505 0 0 0-9.583 11.345v25.56l-10.867 17.615h-20.05l-10.866-17.617v-25.56a11.508 11.508 0 0 0-9.583-11.345 180.125 180.125 0 0 1-32.395-8.654 11.505 11.505 0 0 0-13.961 5.037l-12.765 22.111-18.218 9.826-17.363-10.026-.6-20.689 12.79-22.153a11.504 11.504 0 0 0-2.612-14.603 182.706 182.706 0 0 1-23.719-23.717 11.504 11.504 0 0 0-14.602-2.612l-22.151 12.79-20.689-.601-10.026-17.363 9.824-18.218 22.111-12.766a11.507 11.507 0 0 0 5.037-13.961 180.314 180.314 0 0 1-8.654-32.395 11.505 11.505 0 0 0-11.345-9.583H40.629l-17.618-10.866v-20.05l17.618-10.866h25.56a11.508 11.508 0 0 0 11.345-9.583 180.125 180.125 0 0 1 8.654-32.395 11.507 11.507 0 0 0-5.037-13.961L59.04 166.407l-9.824-18.218 10.026-17.363 20.689-.6 22.151 12.79a11.506 11.506 0 0 0 14.604-2.612 182.472 182.472 0 0 1 23.719-23.719 11.506 11.506 0 0 0 2.612-14.604l-12.79-22.151.6-20.69 17.363-10.026 18.218 9.826 12.765 22.111a11.507 11.507 0 0 0 13.961 5.037 180.114 180.114 0 0 1 32.396-8.652 11.506 11.506 0 0 0 9.584-11.345v-25.56l10.864-17.618h20.05l10.866 17.618v25.56c0 5.613 4.05 10.407 9.584 11.345a180.16 180.16 0 0 1 32.394 8.652 11.508 11.508 0 0 0 13.961-5.037l12.764-22.111 18.219-9.824 17.362 10.026.601 20.69-12.79 22.151a11.508 11.508 0 0 0 2.612 14.604 182.722 182.722 0 0 1 23.719 23.719 11.503 11.503 0 0 0 14.602 2.61l22.15-12.79 20.69.6 10.026 17.363-9.824 18.218-22.111 12.765a11.507 11.507 0 0 0-5.037 13.961 180.264 180.264 0 0 1 8.654 32.395 11.506 11.506 0 0 0 11.345 9.584h25.56l17.618 10.866v20.049z"/>
    <path style="fill:#231f20" d="M256 158.312c-53.866 0-97.69 43.823-97.69 97.69s43.823 97.69 97.69 97.69 97.69-43.823 97.69-97.69-43.824-97.69-97.69-97.69zm0 172.368c-41.177 0-74.679-33.5-74.679-74.679s33.5-74.679 74.679-74.679 74.679 33.5 74.679 74.679-33.5 74.679-74.679 74.679z"/>
</svg><svg id="icon-stories" xmlns="http://www.w3.org/2000/svg" viewBox="0 0 512 512" style="enable-background:new 0 0 512 512" xml:space="preserve">
    <path style="fill:#ff5e5b" d="M477.887 512H79.158c-12.426 0-22.5-10.074-22.5-22.5v-467c0-12.426 10.074-22.5 22.5-22.5h398.729c12.426 0 22.5 10.074 22.5 22.5v467c0 12.426-10.073 22.5-22.5 22.5z"/>
    <path style="fill:#ff423d" d="M477.887 0H278.522v512h199.365c12.426 0 22.5-10.074 22.5-22.5v-467c0-12.426-10.073-22.5-22.5-22.5z"/>
    <path style="fill:#48aee2" d="m385.373 359.454-59.277-102.686-26.909 46.616a22.5 22.5 0 0 1-38.972.001l-12.899-22.34-45.27 78.407a22.5 22.5 0 0 1-19.485 11.25h-30.375c-12.426 0-22.5-10.074-22.5-22.5V95.529c0-12.426 10.074-22.5 22.5-22.5h252.675c12.426 0 22.5 10.074 22.5 22.5v252.675c0 23.07-30.539 31.076-41.988 11.25z"/>
    <path style="fill:#39a3db" d="M404.861 73.029H278.523v241.566c.392.021.783.039 1.179.039a22.5 22.5 0 0 0 19.485-11.25l26.909-46.616 59.277 102.686c11.471 19.863 41.987 11.785 41.987-11.249V95.529c.001-12.426-10.073-22.5-22.499-22.5z"/>
    <path style="fill:#1da49c" d="m424.347 336.956-78.765-136.44c-8.658-14.994-30.332-14.967-38.973 0l-28.086 48.653v85.916l14.077 24.374c8.657 14.988 15.827 11.247 112.26 11.247 17.312-.002 28.126-18.785 19.487-33.75z"/>
    <path style="fill:#f2c500" d="M195.518 217.949c-36.737 0-65.838-26.073-65.838-42.713v-72.753c0-13.406 15.935-29.462 29.462-29.462h72.753c16.109 0 42.713 28.547 42.713 65.838-.001 43.61-35.481 79.09-79.09 79.09z"/>
    <path style="fill:#65c6bb" d="M312.084 370.704H182.559c-17.313 0-28.127-18.785-19.485-33.75l64.755-112.155c8.657-14.993 30.329-14.967 38.97-.002l64.769 112.152c8.659 14.995-2.199 33.755-19.484 33.755z"/>
    <path style="fill:#f2c500" d="M404.865 445.248H152.181c-12.426 0-22.5-10.074-22.5-22.5s10.074-22.5 22.5-22.5h252.684c12.426 0 22.5 10.074 22.5 22.5s-10.074 22.5-22.5 22.5z"/>
    <path style="fill:#ff423d" d="M79.158 118.023H34.113c-12.426 0-22.5-10.074-22.5-22.5s10.074-22.5 22.5-22.5h45.045c12.426 0 22.5 10.074 22.5 22.5s-10.074 22.5-22.5 22.5zM79.158 225.008H34.113c-12.426 0-22.5-10.074-22.5-22.5s10.074-22.5 22.5-22.5h45.045c12.426 0 22.5 10.074 22.5 22.5s-10.074 22.5-22.5 22.5zM79.158 331.992H34.113c-12.426 0-22.5-10.074-22.5-22.5s10.074-22.5 22.5-22.5h45.045c12.426 0 22.5 10.074 22.5 22.5s-10.074 22.5-22.5 22.5zM79.158 438.977H34.113c-12.426 0-22.5-10.074-22.5-22.5s10.074-22.5 22.5-22.5h45.045c12.426 0 22.5 10.074 22.5 22.5s-10.074 22.5-22.5 22.5z"/>
    <path style="fill:#d1d3d4" d="M334.86 174.543h-27.927c-12.426 0-22.5-10.074-22.5-22.5s10.074-22.5 22.5-22.5h27.927c12.426 0 22.5 10.074 22.5 22.5s-10.074 22.5-22.5 22.5z"/>
    <path style="fill:#57bdb7" d="m331.568 336.951-53.046-91.854v125.607h33.561c17.316 0 28.129-18.787 19.485-33.753z"/>
    <path style="fill:#f59d00" d="M404.865 400.248H278.523v45h126.342c12.426 0 22.5-10.074 22.5-22.5s-10.074-22.5-22.5-22.5z"/>
</svg><svg id="icon-logout" xmlns="http://www.w3.org/2000/svg" viewBox="0 0 512 512" xml:space="preserve">
    <path style="fill:#f4a026" d="M20.677 256 188.13 383.348l-13.128-89.276h196.854v-78.769H175.002l13.128-86.651z"/>
    <path style="fill:#61acd2" d="M121.108 446.359H438.81V65.641H121.108V13.128h344.027c14.501 0 26.188 11.755 26.188 26.256v433.231c0 14.501-11.687 26.256-26.188 26.256H121.108v-52.512z"/>
    <path d="M188.131 396.476a13.128 13.128 0 0 0 12.988-15.039L190.201 307.2h182.311c7.249 0 12.472-5.879 12.472-13.128v-78.769c0-7.249-5.222-13.128-12.472-13.128H190.268l10.841-71.555a13.13 13.13 0 0 0-20.927-12.416L12.729 245.55a13.132 13.132 0 0 0 0 20.9l167.453 127.348a13.126 13.126 0 0 0 7.949 2.678zm-26.118-100.494 8.447 57.433L42.365 256l127.933-97.293-8.276 54.629a13.117 13.117 0 0 0 3.026 10.526 13.123 13.123 0 0 0 9.954 4.569h183.727v52.513H175.002a13.13 13.13 0 0 0-12.989 15.038z"/>
    <path d="M465.135 0H121.764c-7.249 0-13.785 5.879-13.785 13.128v52.513c0 7.249 6.535 13.128 13.785 13.128h303.918v354.462H121.764c-7.249 0-13.785 5.879-13.785 13.128v52.513c0 7.249 6.535 13.128 13.785 13.128h343.371c22.041 0 39.316-17.668 39.316-39.385V39.385C504.451 17.668 487.176 0 465.135 0zm13.06 472.615c0 7.117-5.625 13.128-13.06 13.128H134.236v-26.256h305.231c7.249 0 12.472-5.879 12.472-13.128V65.641c0-7.249-5.222-13.128-12.472-13.128H134.236V26.256h330.899c7.435 0 13.06 6.011 13.06 13.128v433.231z"/>
</svg>


