<svg id="logo" xmlns="http://www.w3.org/2000/svg" viewBox="0 0 96.46 96.46" style="enable-background:new 0 0 96.46 96.46" xml:space="preserve">
    <path style="fill:#484e4e" d="M63.9 28.673c0 1.356-2.528 2.455-3.72 2.455h-23.9c-1.191 0-3.72-1.099-3.72-2.455l1.563-15.749c0-1.355.966-2.454 2.157-2.454h23.9c1.191 0 2.158 1.099 2.158 2.454L63.9 28.673z"/>
    <path style="fill:#fff" d="M59.066 14.383c0 .791-.563 1.432-1.259 1.432H38.45c-.695 0-1.259-.641-1.259-1.432 0-.791.564-1.432 1.259-1.432h19.357c.695 0 1.259.641 1.259 1.432z"/>
    <path style="fill:#484e4e" d="M81.884 25.859c0 1.128-.81 2.043-1.808 2.043H77.86c-.998 0-1.808-.915-1.808-2.043v-5.591c0-1.129.81-2.043 1.808-2.043h2.217c.998 0 1.808.915 1.808 2.043v5.591zM25.101 25.283v-3.435a2.424 2.424 0 0 0-2.424-2.424h-8.89a2.424 2.424 0 0 0-2.424 2.424v3.435h13.738zM50.02 40.786h-2.099a1.48 1.48 0 0 0-1.48 1.48v11.875c0 .817.663 1.48 1.48 1.48h2.099V40.786z"/>
    <path style="fill:#484e4e" d="M46.441 40.786h2.098a1.48 1.48 0 0 1 1.481 1.48v11.875a1.48 1.48 0 0 1-1.481 1.48h-2.098V40.786z"/>
    <path style="fill:#cfcec7" d="M96.308 78.639a7.352 7.352 0 0 1-7.353 7.352H7.505a7.352 7.352 0 0 1-7.352-7.352V31.456a7.352 7.352 0 0 1 7.352-7.352h81.451a7.353 7.353 0 0 1 7.353 7.352v47.183z"/>
    <path style="fill:#484e4e" d="M0 38.497h96.46v33.101H0z"/>
    <circle style="fill:#cfcec7" cx="83.475" cy="61.906" r="3.749"/>
    <circle style="fill:#ff7526" cx="83.475" cy="61.906" r="2.21"/>
    <path style="opacity:.16;fill:#fff" d="M48.128 10.469H36.28c-1.191 0-2.157 1.099-2.157 2.454l-1.109 11.181h-7.912v-2.256a2.424 2.424 0 0 0-2.424-2.424h-8.89a2.424 2.424 0 0 0-2.424 2.424v2.256H7.505a7.352 7.352 0 0 0-7.352 7.352v7.041H0v33.101h.152v7.041a7.352 7.352 0 0 0 7.352 7.352h40.624V10.469z"/>
    <circle style="fill:#ff7526" cx="48.23" cy="55.802" r="27.011"/>
    <circle style="fill:#484e4e" cx="48.23" cy="55.802" r="21.295"/>
    <circle style="fill:#cfcec7" cx="48.23" cy="55.802" r="15.899"/>
    <circle style="fill:#484e4e" cx="48.23" cy="55.802" r="11.447"/>
    <circle style="fill:#fff" cx="41.534" cy="48.682" r="4.729"/>
</svg>
