<svg id='logo' xmlns="http://www.w3.org/2000/svg" viewBox="0 0 423.92 423.92" style="enable-background:new 0 0 423.92 423.92" xml:space="preserve">
    <path style="fill:#ccc" d="M409.381 355.331c-1.34-53.37-2.96-106.73-4.54-160.1-.07-2.11-.74-4.2-1.08-6.08h-72.39c3.37 27.02-5.87 50.22-16.75 72.98-3.33 6.97-7.18 13.69-10.63 20.61-12.45 24.99-31.2 44.46-53.23 61.09-20.19 15.23-22.26 15.8-44.22 3.33-32.82-18.64-63.46-40.35-89.1-68.37-18.82-20.57-30.22-44.38-28.69-72.96.43-7.94 2.31-15.79 3.65-24.53-4.74-.51-9.04-1.42-13.32-1.34-8.44.15-16.87 1.27-25.29 1.2-5.383-.049-8.607 1.647-11.284 6.323a5.035 5.035 0 0 0 .337-1.885c.695-3.134-1.211-6.979-4.59-6.557a4.855 4.855 0 0 0-2.696-.868c-7.173-.1-13.616 3.523-17.518 9.029-1.201.231-2.343.931-3.176 2.253a26.455 26.455 0 0 0-1.05 1.843c-1.58.696-2.882 2.145-3.133 4.335-.552 4.808-.003 9.618 1.545 14.202.111.329.248.627.401.906a94.197 94.197 0 0 0-1.829 6.233c-1.4 5.491 6.23 8.786 9.139 3.853 6.548-11.105 13.768-21.788 21.749-31.915.027-.035.049-.07.075-.105-6.435 11.515-12.962 23.037-20.409 33.903-4.43 6.45-4.29 12.35-2.77 21.07 10.08-14.17 18.97-26.66 27.85-39.15.6.4 1.21.8 1.81 1.21-1.99 3.38-3.84 6.86-5.99 10.14-5.63 8.64-10.95 17.54-17.21 25.71-8.44 10.98-8.47 22.59-4.4 36.23 9.31-15.26 17.21-30.3 29.01-42.67-7.65 15.03-15.66 29.83-24.99 43.76-5.17 7.72-6.38 15-3.55 24.86 8.8-12.23 17-23.64 25.21-35.05.65.46 1.3.91 1.95 1.37-2.76 4.69-5.43 9.43-8.31 14.04-5.46 8.75-11.42 17.22-16.4 26.23-2.18 3.95-3.6 8.98-3.41 13.45.53 12.83 1.76 25.66 3.28 38.43 1.23 10.31 3.58 12.73 13.82 13.5 9.1.68 18.29.14 27.41.14 6.39-15.69 15.88-29.34 25.51-42.9.71.41 1.43.82 2.15 1.24-7.87 13.66-15.74 27.33-24.08 41.81h19.93c6.9-13.59 14.73-25.61 24.48-36.35-3.4 13.09-13.87 22.67-18.15 36.08h58.34c5.99-10.7 13.57-19.21 24.01-25.44-5.89 7.94-11.78 15.87-19 25.62 6.28 0 9.87.05 13.46-.01 31.68-.53 63.35-1.27 95.02-1.5 8.33-.06 14.36-2.14 19.48-9.37 5.53-7.79 11.66-15.49 20.49-20.41-7.04 9.06-14.09 18.13-22.17 28.54h27.89c7.82-8.9 16.28-16.5 27.69-20.55-5.67 5.97-11.34 11.95-17.52 18.46 2.04.71 2.99 1.33 3.93 1.32 22.45-.23 44.91-.17 67.34-.95 14.629-.51 16.269-2.34 15.919-16.24zm-354.57-64.75c.6.31 1.2.63 1.8.94-.86 1.95-1.46 4.08-2.64 5.81-6.96 10.23-14.05 20.36-21.12 30.51-.14.19-.66.35-.83.24-.28-.17-.42-.57-1.36-2.03l24.15-35.47zm-24.75 75.26c-.64-.37-1.27-.74-1.9-1.11 6.87-16.36 17.7-30.41 27.17-45.26.8.43 1.59.86 2.39 1.29-9.22 15.03-18.44 30.05-27.66 45.08zm16.38 4.77c5.65-15.76 15.85-28.72 24.89-42.37-1.12 7.82-15 31.96-24.89 42.37zm67.9.98c-.76-.59-1.53-1.18-2.29-1.78 5.59-11.5 12.79-22 22.3-31.09-6.67 10.96-13.34 21.91-20.01 32.87zm22.19-1.41c1.73-10.33 8.68-16.86 14.79-24.01.59.44 1.18.87 1.77 1.3l-16.56 22.71zm132.88-1.7c-.88-.81-1.75-1.62-2.63-2.43 4.84-5.41 9.69-10.82 14.54-16.23.65.54 1.3 1.08 1.96 1.62-4.63 5.68-9.25 11.36-13.87 17.04zm32.11 1.4c.52-8.66 6.16-15.35 19.42-22.57-7.36 8.55-13.11 15.23-19.42 22.57zm34.8.96c4.25-9.96 11.18-14 18.54-17.62-4.41 6.67-8.9 13.35-18.54 17.62z"/>
    <path d="M423.911 349.801c.09 4.37-.48 8.8-1.15 13.14-2.21 14.22-5.08 17.45-19.43 19.58-9.45 1.4-19.06 2.13-28.61 2.25-38.7.47-77.41.46-116.11.88-56.01.61-112.02 1.49-168.03 2.15-16.52.2-33.04.19-49.56-.09-4.71-.09-9.46-1.22-14.08-2.34-10.16-2.47-15.72-9.1-16.52-19.54-1.21-15.77-2.82-31.53-3.36-47.32-.8-22.83-.6-45.69-1.16-68.53-1.12-45.29-2.42-90.58-3.79-135.86-.15-5.11-1.23-10.2-1.85-15.31-1.21-9.88 1.68-15.45 10.99-19.13 5.77-2.28 11.97-3.49 19.49-5.6.22-4.2.42-9.2.75-14.19.62-9.07 1.59-10.01 10.45-10.19 18.42-.37 36.83-.74 55.25-1.03 12.49-.19 13.36.96 11.85 13.1-.5 3.94-.08 7.99-.08 13.35 10.55 1.26 20.98.63 32.59.66-.54-7.59-.7-14.49-1.6-21.3-1.41-10.73-.85-14.52 12.44-15.71 30.55-2.74 61.07-2.43 91.62-2.77 1.47-.02 2.95-.03 4.42 0 10.9.23 12.37 2.08 11.97 13.39-.3 8.31-.06 16.65-.06 25.7h33.84c-.9-6.5-2.09-12.55-2.49-18.65-.42-6.37 2.34-8.94 8.2-8.97 15.8-.07 31.59-.37 47.39-.24 6.58.05 13.16 1.02 19.75 1.5 5.43.39 7.9 3.36 7.77 8.67-.09 3.68-.42 7.35-.31 11.02.08 2.79.68 5.56.83 6.65 11.09 2.52 20.72 4.44 30.19 6.97 5.11 1.36 7.68 5.38 8.03 10.74.79 12.1 1.9 24.18 2.44 36.29.91 20.96 1.35 41.94 2.26 62.9.95 22.05 2.32 44.09 3.33 66.15.46 9.93.46 19.89.72 29.83.55 20.62 1.22 41.23 1.62 61.85zm-30.45 21.77c14.63-.51 16.27-2.34 15.92-16.24-1.34-53.37-2.96-106.73-4.54-160.1-.07-2.11-.74-4.2-1.08-6.08h-72.39c3.37 27.02-5.87 50.22-16.75 72.98-3.33 6.97-7.18 13.69-10.63 20.61-12.45 24.99-31.2 44.46-53.23 61.09-20.19 15.23-22.26 15.8-44.22 3.33-32.82-18.64-63.46-40.35-89.1-68.37-18.82-20.57-30.22-44.38-28.69-72.96.43-7.94 2.31-15.79 3.65-24.53-4.74-.51-9.04-1.42-13.32-1.34-8.44.15-16.87 1.27-25.29 1.2-5.46-.05-8.7 1.69-11.4 6.52-6.64 11.89-13.35 23.81-21.04 35.03-4.43 6.45-4.29 12.35-2.77 21.07 10.08-14.17 18.97-26.66 27.85-39.15.6.4 1.21.8 1.81 1.21-1.99 3.38-3.84 6.86-5.99 10.14-5.63 8.64-10.95 17.54-17.21 25.71-8.44 10.98-8.47 22.59-4.4 36.23 9.31-15.26 17.21-30.3 29.01-42.67-7.65 15.03-15.66 29.83-24.99 43.76-5.17 7.72-6.38 15-3.55 24.86 8.8-12.23 17-23.64 25.21-35.05.65.46 1.3.91 1.95 1.37-2.76 4.69-5.43 9.43-8.31 14.04-5.46 8.75-11.42 17.22-16.4 26.23-2.18 3.95-3.6 8.98-3.41 13.45.53 12.83 1.76 25.66 3.28 38.43 1.23 10.31 3.58 12.73 13.82 13.5 9.1.68 18.29.14 27.41.14 6.39-15.69 15.88-29.34 25.51-42.9.71.41 1.43.82 2.15 1.24-7.87 13.66-15.74 27.33-24.08 41.81h19.93c6.9-13.59 14.73-25.61 24.48-36.35-3.4 13.09-13.87 22.67-18.15 36.08h58.34c5.99-10.7 13.57-19.21 24.01-25.44-5.89 7.94-11.78 15.87-19 25.62 6.28 0 9.87.05 13.46-.01 31.68-.53 63.35-1.27 95.02-1.5 8.33-.06 14.36-2.14 19.48-9.37 5.53-7.79 11.66-15.49 20.49-20.41-7.04 9.06-14.09 18.13-22.17 28.54h27.89c7.82-8.9 16.28-16.5 27.69-20.55-5.67 5.97-11.34 11.95-17.52 18.46 2.04.71 2.99 1.33 3.93 1.32 22.45-.23 44.91-.17 67.34-.95zm10.3-192.03c1.79-29.98-2.02-58.35-4.71-87.55-4.42-1.25-8.53-3.06-12.77-3.49-10.97-1.11-22.01-2.31-33.01-2.23-54.18.44-108.35 1.68-162.53 1.86-34.26.11-68.53-1.05-102.79-1.8-11.04-.25-22.09-1.74-33.1-1.39-11.71.36-23.45 1.72-35.03 3.59-7.46 1.21-8.1 3.2-7.62 10.63.49 7.72.67 15.46 1.14 23.19.13 2.31.76 4.59 1.5 8.79 6.1-9.7 11.13-17.7 16.16-25.69-3.06 16.78-19.37 28.68-15.32 49.58 8.51-11.54 15.95-21.62 23.4-31.71.88 2.52.16 4.07-.76 5.48-6.22 9.58-12.54 19.09-18.7 28.71-1.77 2.76-3.93 5.67-4.39 8.74-.34 2.25 1.31 5.4 3.09 7.07.72.68 4.5-1.03 6.21-2.47 1.89-1.61 2.98-4.17 4.47-6.27 4.37-6.13 8.78-12.25 13.17-18.37.75.48 1.51.96 2.27 1.44-4.9 8.07-9.8 16.15-15.37 25.33h67.09c24.93-45.44 95.52-46.35 126.2-6.61 14.35-21.32 34.2-32.91 59.87-30.3 27.13 2.76 39.57 22.79 47.99 46.23 24.9-.93 49-1.84 73.54-2.76zm-39.76-102.24c.71-7.68 1.3-14.09 1.98-21.45-5.71-.74-10.77-1.39-15.9-2.06 1.09 8.63 2 15.77 2.98 23.51h10.94zm-39.41-.71h20.54c-.36-7.3-.69-14.15-1.09-22.23-7.63.47-14.39.88-21.33 1.3.67 7.39 1.24 13.82 1.88 20.93zm-7.18 145.81c6.16-20.73 3.5-40.91-9.18-59.06-7.93-11.35-18.81-17.53-32.86-16.92-14.6.63-27.34 5.64-36.54 17.59-5.31 6.89-11.15 12.72-20.54 13.16-.65-.32-1.42-.53-1.93-1-1.07-1-2.12-2.06-2.99-3.24-17.71-23.98-42.77-27.75-69.31-22.71-29.13 5.53-47.62 33.97-44.19 65.15 2.45 22.25 11.52 41.51 27.15 57.9 24.69 25.89 53.6 46.02 84.51 63.54 4.14 2.35 8.69 3.99 13.07 5.91 3.65 1.61 7.04 1.54 10.29-1.2 11.81-9.96 25.1-18.58 35.26-29.99 22.84-25.69 37.53-56.35 47.26-89.13zm-.33-147.34v-19.22h-18.07c.93 6.85 1.74 12.88 2.59 19.22h15.48zm-68.5-.24v-28.53c-32.78.86-65.4-2.69-98.25 2.4v28.3c33.63 1.18 66.09-.37 98.25-2.17zm-147.37-17.99h-13.07c.76 6.7 1.4 12.36 2.08 18.41 3.86-.18 6.68-.32 9.87-.48.38-6.21.74-11.94 1.12-17.93zm-20.3 18.79c4.33-6.22 1.9-12.27 2.07-18.67-2.64.33-4.72.58-8.68 1.07 4.5 5.37.38 12.41 6.61 17.6zm-11.51-2.24v-15.36c-3.94-.69-7.17-1.26-12.22-2.14.82 6.74 1.47 12.04 2.13 17.5h10.09zm-17.58-.38v-15.94c-4.27.39-7.7.71-11.4 1.06v14.88h11.4zm-9.21 108.28c-2.27-.74-3.21-1.28-4.18-1.32-2.57-.1-5.17-.1-7.73.08-7.09.49-14.86 7.83-14.82 14.87.05 7.56 1.1 15.11 1.92 25.29 9.04-14.18 16.75-26.28 24.81-38.92z"/>
    <path style="fill:#4d4d4d" d="M399.051 91.991c2.69 29.2 6.5 57.57 4.71 87.55-24.54.92-48.64 1.83-73.54 2.76-8.42-23.44-20.86-43.47-47.99-46.23-25.67-2.61-45.52 8.98-59.87 30.3-30.68-39.74-101.27-38.83-126.2 6.61h-67.09c5.57-9.18 10.47-17.26 15.37-25.33-.76-.48-1.52-.96-2.27-1.44-4.39 6.12-8.8 12.24-13.17 18.37-1.49 2.1-2.58 4.66-4.47 6.27-1.71 1.44-5.49 3.15-6.21 2.47-1.78-1.67-3.43-4.82-3.09-7.07.46-3.07 2.62-5.98 4.39-8.74 6.16-9.62 12.48-19.13 18.7-28.71.92-1.41 1.64-2.96.76-5.48-7.45 10.09-14.89 20.17-23.4 31.71-4.05-20.9 12.26-32.8 15.32-49.58-5.03 7.99-10.06 15.99-16.16 25.69-.74-4.2-1.37-6.48-1.5-8.79-.47-7.73-.65-15.47-1.14-23.19-.48-7.43.16-9.42 7.62-10.63 11.58-1.87 23.32-3.23 35.03-3.59 11.01-.35 22.06 1.14 33.1 1.39 34.26.75 68.53 1.91 102.79 1.8 54.18-.18 108.35-1.42 162.53-1.86 11-.08 22.04 1.12 33.01 2.23 4.24.43 8.35 2.24 12.77 3.49zm-21.44 45.57c1.14-12.95-9.45-25.95-21.41-26.28-9.34-.26-19.59 9.61-20.49 19.76-1.16 13.02 6.95 20.02 24.55 21.17 9.4.61 16.55-5.42 17.35-14.65z"/>
    <path d="M356.201 111.281c11.96.33 22.55 13.33 21.41 26.28-.8 9.23-7.95 15.26-17.35 14.65-17.6-1.15-25.71-8.15-24.55-21.17.9-10.15 11.15-20.02 20.49-19.76zm14.84 24.57c.15-9.09-6.25-16.54-14.22-16.54-6.32 0-11.64 6.13-11.73 13.5-.09 7.78 6.54 13.45 15.68 13.4 6.27-.03 10.16-3.95 10.27-10.36z"/>
    <path style="fill:#fbb03b" d="M356.821 119.311c7.97 0 14.37 7.45 14.22 16.54-.11 6.41-4 10.33-10.27 10.36-9.14.05-15.77-5.62-15.68-13.4.09-7.37 5.41-13.5 11.73-13.5z"/>
    <path style="fill:#999" d="M365.981 55.851c-.68 7.36-1.27 13.77-1.98 21.45h-10.94c-.98-7.74-1.89-14.88-2.98-23.51 5.13.67 10.19 1.32 15.9 2.06z"/>
    <path d="M354.861 353.221c-4.41 6.67-8.9 13.35-18.54 17.62 4.25-9.96 11.18-14 18.54-17.62z"/>
    <path style="fill:#999" d="M345.131 76.591h-20.54c-.64-7.11-1.21-13.54-1.88-20.93 6.94-.42 13.7-.83 21.33-1.3.4 8.08.73 14.93 1.09 22.23z"/>
    <path style="fill:#333" d="M308.231 163.341c12.68 18.15 15.34 38.33 9.18 59.06-9.73 32.78-24.42 63.44-47.26 89.13-10.16 11.41-23.45 20.03-35.26 29.99-3.25 2.74-6.64 2.81-10.29 1.2-4.38-1.92-8.93-3.56-13.07-5.91-30.91-17.52-59.82-37.65-84.51-63.54-15.63-16.39-24.7-35.65-27.15-57.9-3.43-31.18 15.06-59.62 44.19-65.15 26.54-5.04 51.6-1.27 69.31 22.71.87 1.18 1.92 2.24 2.99 3.24.51.47 1.28.68 1.93 1 9.39-.44 15.23-6.27 20.54-13.16 9.2-11.95 21.94-16.96 36.54-17.59 14.05-.61 24.93 5.57 32.86 16.92zm-15.38 55.17c1.49-5.17 1.45-10.93 1.34-16.4-.27-13.44-6.16-21.76-19.11-24.87-18.24-4.38-35.03-1.55-48.21 13.33-2.67 3.02-5.31 6.07-7.63 8.72-5.96-5.88-9.97-11.39-15.31-14.79-13.1-8.32-27.49-9.52-42.42-5.18-13.19 3.83-21.84 11.99-24.55 25.58-5.13 25.7 2.34 48.09 19.31 67.32 9.29 10.53 20.52 19.02 33.35 25.03 11.32 5.3 22.7 10.48 34.18 15.43 11.16 4.81 11.42 4.28 19.97-4.15 25.46-25.09 39.39-56.43 49.08-90.02z"/>
    <path style="fill:#999" d="M317.081 55.841v19.22h-15.48c-.85-6.34-1.66-12.37-2.59-19.22h18.07z"/>
    <path d="M320.941 347.311c-7.36 8.55-13.11 15.23-19.42 22.57.52-8.66 6.16-15.35 19.42-22.57zM294.191 202.111c.11 5.47.15 11.23-1.34 16.4-9.69 33.59-23.62 64.93-49.08 90.02-8.55 8.43-8.81 8.96-19.97 4.15-11.48-4.95-22.86-10.13-34.18-15.43-12.83-6.01-24.06-14.5-33.35-25.03-16.97-19.23-24.44-41.62-19.31-67.32 2.71-13.59 11.36-21.75 24.55-25.58 14.93-4.34 29.32-3.14 42.42 5.18 5.34 3.4 9.35 8.91 15.31 14.79 2.32-2.65 4.96-5.7 7.63-8.72 13.18-14.88 29.97-17.71 48.21-13.33 12.95 3.11 18.84 11.43 19.11 24.87zm-10.15 11.2c1.07-3.77.91-8.06.57-12.05-.87-9.99-6.03-15.77-15.9-16.76-12.88-1.29-24.97 1-34.47 10.92-3.82 3.98-7.64 7.96-11.49 11.92-5.3 5.43-8.65 5.26-11.04-1.66-5.08-14.71-26.51-24.46-47.06-18.24-15.29 4.63-23.48 19.71-20.51 38.01 3.11 19.15 11.56 35.19 26.71 48.06 17.85 15.16 39.78 21.89 61.89 33.05 4.74-5.26 8.92-9.89 13.09-14.53 20.28-22.57 30.12-50.25 38.21-78.72z"/>
    <path style="fill:#c1272d" d="M284.611 201.261c.34 3.99.5 8.28-.57 12.05-8.09 28.47-17.93 56.15-38.21 78.72-4.17 4.64-8.35 9.27-13.09 14.53-22.11-11.16-44.04-17.89-61.89-33.05-15.15-12.87-23.6-28.91-26.71-48.06-2.97-18.3 5.22-33.38 20.51-38.01 20.55-6.22 41.98 3.53 47.06 18.24 2.39 6.92 5.74 7.09 11.04 1.66 3.85-3.96 7.67-7.94 11.49-11.92 9.5-9.92 21.59-12.21 34.47-10.92 9.87.99 15.03 6.77 15.9 16.76z"/>
    <path d="M283.281 351.441c-4.63 5.68-9.25 11.36-13.87 17.04-.88-.81-1.75-1.62-2.63-2.43 4.84-5.41 9.69-10.82 14.54-16.23.65.54 1.3 1.08 1.96 1.62z"/>
    <path style="fill:#999" d="M248.581 46.291v28.53c-32.16 1.8-64.62 3.35-98.25 2.17v-28.3c32.85-5.09 65.47-1.54 98.25-2.4z"/>
    <path d="m153.091 347.471-16.56 22.71c1.73-10.33 8.68-16.86 14.79-24.01.59.44 1.18.87 1.77 1.3zM134.351 338.721c-6.67 10.96-13.34 21.91-20.01 32.87-.76-.59-1.53-1.18-2.29-1.78 5.59-11.5 12.79-22 22.3-31.09z"/>
    <path style="fill:#999" d="M88.141 56.831h13.07c-.38 5.99-.74 11.72-1.12 17.93-3.19.16-6.01.3-9.87.48-.68-6.05-1.32-11.71-2.08-18.41zM82.981 56.951c-.17 6.4 2.26 12.45-2.07 18.67-6.23-5.19-2.11-12.23-6.61-17.6 3.96-.49 6.04-.74 8.68-1.07zM69.401 58.021v15.36h-10.09c-.66-5.46-1.31-10.76-2.13-17.5 5.05.88 8.28 1.45 12.22 2.14z"/>
    <path d="M71.331 328.241c-1.12 7.82-15 31.96-24.89 42.37 5.65-15.76 15.85-28.72 24.89-42.37zM57.721 320.761c-9.22 15.03-18.44 30.05-27.66 45.08-.64-.37-1.27-.74-1.9-1.11 6.87-16.36 17.7-30.41 27.17-45.26.8.43 1.59.86 2.39 1.29zM54.811 290.581c.6.31 1.2.63 1.8.94-.86 1.95-1.46 4.08-2.64 5.81-6.96 10.23-14.05 20.36-21.12 30.51-.14.19-.66.35-.83.24-.28-.17-.42-.57-1.36-2.03l24.15-35.47z"/>
    <path style="fill:#999" d="M51.821 57.061v15.94h-11.4v-14.88c3.7-.35 7.13-.67 11.4-1.06z"/>
</svg>
