<svg xmlns="http://www.w3.org/2000/svg" viewBox="0 0 512.001 512.001" style="enable-background:new 0 0 512.001 512.001" xml:space="preserve">
    <circle style="fill:#f7b239" cx="256.004" cy="256.004" r="246.855"/>
    <path style="fill:#e09b2d" d="M126.306 385.694c-88.801-88.802-95.798-228.426-20.998-325.241A249.063 249.063 0 0 0 81.45 81.452c-96.401 96.401-96.401 252.698 0 349.099s252.698 96.401 349.099 0a249.34 249.34 0 0 0 20.999-23.858c-96.815 74.799-236.44 67.802-325.242-20.999z"/>
    <path style="fill:#e09b2d" d="M297.481 349.115h-85.403c-5.054 0-9.15-4.097-9.15-9.15s4.095-9.15 9.15-9.15h85.403a9.15 9.15 0 1 1 0 18.3z"/>
    <path d="M256.001 0C114.841 0 0 114.841 0 256.001s114.841 256.001 256.001 256.001 256-114.842 256-256.001S397.16 0 256.001 0zm0 493.701c-131.069 0-237.702-106.631-237.702-237.7S124.932 18.299 256.001 18.299s237.702 106.632 237.702 237.702-106.635 237.7-237.702 237.7z"/>
    <path d="M371.284 296.658H138.275c-5.054 0-9.15 4.097-9.15 9.15s4.095 9.15 9.15 9.15h233.008a9.15 9.15 0 0 0 9.15-9.15 9.149 9.149 0 0 0-9.149-9.15zM180.577 226.834c0-18.666-15.186-33.852-33.852-33.852s-33.852 15.186-33.852 33.852 15.186 33.852 33.852 33.852 33.852-15.185 33.852-33.852zM365.275 192.982c-18.666 0-33.852 15.186-33.852 33.852s15.186 33.852 33.852 33.852 33.852-15.186 33.852-33.852-15.185-33.852-33.852-33.852z"/>
    <circle style="fill:#fff" cx="155.969" cy="219.735" r="9.15"/>
    <circle style="fill:#fff" cx="374.338" cy="219.735" r="9.15"/>
</svg>
