<svg xmlns="http://www.w3.org/2000/svg" viewBox="0 0 512 512" style="enable-background:new 0 0 512 512" xml:space="preserve">
    <circle style="fill:#f7b239" cx="256.006" cy="256.006" r="246.856"/>
    <path style="fill:#e09b2d" d="M126.309 385.698c-88.802-88.802-95.8-228.428-20.999-325.243a249.195 249.195 0 0 0-23.859 20.999c-96.402 96.402-96.402 252.7 0 349.102s252.7 96.402 349.102 0a249.228 249.228 0 0 0 20.999-23.859c-96.816 74.801-236.442 67.803-325.243-20.999z"/>
    <path d="M303.047 359.125c0 12.468-2.623 24.106-7.149 33.951-8.308 18.08-23.069 30.096-39.892 30.096s-31.584-12.016-39.892-30.096c-4.538-9.845-7.161-21.483-7.161-33.951 0-35.366 21.069-64.047 47.053-64.047s47.041 28.68 47.041 64.047z"/>
    <path style="fill:#f2f2f2" d="M216.102 325.173c8.308-18.08 23.069-30.096 39.892-30.096s31.584 12.017 39.892 30.096c-1.465.298-22.757 8.599-39.892 8.627-20.808.036-38.112-8.265-39.892-8.627z"/>
    <path style="fill:#2197d8" d="M422.797 424.884c0 5.734-.671 10.553-1.806 14.737-25.704 23.106-56.276 40.893-89.996 51.628 2.306-30.767 25.778-32.438 25.778-66.365 0-35.684-25.961-35.684-25.961-71.367s25.961-35.683 25.961-71.367c0-35.257-25.363-35.671-25.948-70.123 23.85 1.537 48.53 7.71 67.89 13.773 5.941 21.642 24.082 26.534 24.082 56.349 0 35.683-25.96 35.683-25.96 71.367s25.96 35.684 25.96 71.368zM155.226 282.15c0 35.683 25.961 35.683 25.961 71.367s-25.96 35.683-25.96 71.367c0 33.927 23.472 35.598 25.778 66.365-33.719-10.736-64.291-28.522-89.996-51.628-1.135-4.184-1.806-9.003-1.806-14.737 0-35.684 25.96-35.684 25.96-71.367s-25.96-35.683-25.96-71.367c0-29.816 18.141-34.708 24.082-56.349 19.361-6.063 44.04-12.236 67.89-13.773-.586 34.45-25.949 34.865-25.949 70.122z"/>
    <path d="M256.006 285.928c-30.99 0-56.203 32.836-56.203 73.197 0 13.36 2.767 26.424 7.998 37.772 10.193 22.182 28.215 35.425 48.206 35.425s38.012-13.243 48.206-35.424c5.224-11.364 7.986-24.426 7.986-37.773-.002-40.361-25.21-73.197-56.193-73.197zm0 18.299c10.287 0 19.623 5.978 26.458 15.651-7.481 2.223-17.787 4.76-26.485 4.774h-.117c-10.355 0-19.834-2.326-26.542-4.469 6.855-9.855 16.287-15.956 26.686-15.956zm31.58 85.029c-7.128 15.508-18.934 24.767-31.58 24.767-12.646 0-24.451-9.258-31.583-24.777-4.136-8.971-6.322-19.387-6.322-30.121 0-7.932 1.177-15.469 3.277-22.285 7.914 2.7 20.351 6.112 34.484 6.111h.148c11.716-.02 24.445-3.252 34.521-6.407 2.157 6.893 3.367 14.533 3.367 22.581 0 10.727-2.183 21.145-6.312 30.131zM365.278 120.206c-22.617 0-43.046 11.592-54.646 31.007l15.71 9.385c8.265-13.834 22.82-22.093 38.936-22.094 16.117 0 30.673 8.26 38.938 22.094a9.144 9.144 0 0 0 12.548 3.161 9.15 9.15 0 0 0 3.162-12.547c-11.601-19.414-32.03-31.006-54.648-31.006zM201.372 151.215c-11.6-19.415-32.029-31.007-54.645-31.007h-.001c-22.615 0-43.046 11.593-54.646 31.007-2.591 4.338-1.176 9.956 3.162 12.547a9.147 9.147 0 0 0 12.548-3.161c8.265-13.834 22.822-22.094 38.938-22.094 16.116 0 30.671 8.26 38.936 22.094 2.591 4.338 8.21 5.753 12.547 3.162a9.152 9.152 0 0 0 3.161-12.548z"/>
    <path d="M256.006 0C114.843 0 0 114.843 0 256.006c0 72.499 30.94 141.904 84.891 190.419 27.234 24.481 58.637 42.494 93.335 53.541 25.053 7.985 51.221 12.034 77.78 12.034 26.551 0 52.715-4.049 77.767-12.034 34.699-11.048 66.103-29.062 93.336-53.542l.001-.001C481.06 397.91 512 328.505 512 256.005 512 114.843 397.161 0 256.006 0zM98.352 424.884c0-14.866 4.955-21.677 11.228-30.301 6.905-9.491 14.731-20.249 14.731-41.066 0-20.817-7.826-31.575-14.731-41.066-6.274-8.624-11.228-15.435-11.228-30.301 0-14.853 4.953-21.66 11.221-30.279 3.783-5.199 7.981-10.982 10.916-18.71 18.159-5.463 35.014-9.139 50.313-10.98-1.843 7.682-5.58 12.846-9.995 18.914-6.904 9.489-14.73 20.245-14.73 41.055 0 20.817 7.826 31.575 14.731 41.066 6.274 8.624 11.228 15.435 11.228 30.301 0 14.866-4.955 21.677-11.228 30.301-6.905 9.491-14.731 20.249-14.731 41.066 0 20.815 7.825 31.572 14.728 41.063 2.627 3.611 5.075 6.989 7.015 10.854-25.061-9.985-48.057-24.107-68.57-42.122-.596-2.992-.898-6.216-.898-9.795zm252.841-41.066c-6.274-8.624-11.23-15.435-11.23-30.301s4.957-21.677 11.23-30.301c6.905-9.491 14.731-20.249 14.731-41.066 0-20.811-7.826-31.566-14.731-41.056-4.416-6.068-8.152-11.233-9.995-18.914 15.292 1.84 32.149 5.517 50.313 10.98 2.935 7.728 7.133 13.511 10.915 18.71 6.271 8.618 11.222 15.426 11.222 30.279 0 14.866-4.957 21.677-11.23 30.301-6.905 9.491-14.731 20.249-14.731 41.066s7.826 31.575 14.731 41.066c6.274 8.624 11.23 15.435 11.23 30.301 0 3.577-.301 6.802-.9 9.795-20.512 18.015-43.506 32.137-68.568 42.122 1.94-3.865 4.388-7.244 7.015-10.855 6.904-9.491 14.728-20.249 14.728-41.063 0-20.817-7.826-31.574-14.73-41.064zm80.256 32.523c-1.803-15.391-8.344-24.429-14.233-32.524-6.274-8.624-11.23-15.435-11.23-30.301s4.957-21.677 11.23-30.301c6.905-9.491 14.731-20.249 14.731-41.066 0-20.097-7.298-30.81-14.015-40.067 8.355 3.138 13.437 5.363 13.522 5.401a9.147 9.147 0 0 0 12.06-4.684 9.149 9.149 0 0 0-4.681-12.063c-.629-.278-15.663-6.873-37.384-13.67-17.446-5.464-33.884-9.414-49.102-11.81 13.805-5.282 32.196-10.067 53.515-10.067 5.054 0 9.15-4.097 9.15-9.15s-4.095-9.15-9.15-9.15c-53.614 0-89.902 26.284-91.42 27.402a9.15 9.15 0 0 0 5.427 16.516c.822 0 1.659.028 2.489.041 2.045 14.478 8.352 23.194 14.037 31.007 6.274 8.621 11.228 15.431 11.228 30.289 0 14.866-4.957 21.677-11.23 30.301-6.905 9.491-14.731 20.249-14.731 41.066 0 20.817 7.826 31.575 14.731 41.066 6.274 8.624 11.23 15.435 11.23 30.301 0 14.863-4.955 21.675-11.228 30.299-5.395 7.418-11.411 15.702-13.737 29.036-21.558 6.289-43.949 9.483-66.653 9.483-22.712 0-45.106-3.194-66.664-9.483-2.326-13.333-8.342-21.617-13.738-29.035-6.273-8.624-11.227-15.436-11.227-30.3 0-14.866 4.955-21.677 11.228-30.301 6.905-9.491 14.731-20.249 14.731-41.066 0-20.817-7.826-31.575-14.731-41.066-6.274-8.624-11.228-15.435-11.228-30.301 0-14.858 4.955-21.668 11.228-30.289 5.684-7.814 11.991-16.529 14.036-31.007.834-.013 1.675-.041 2.502-.041a9.15 9.15 0 0 0 5.427-16.516c-1.52-1.117-37.807-27.401-91.435-27.401-5.054 0-9.15 4.097-9.15 9.15s4.095 9.15 9.15 9.15c21.326 0 39.72 4.785 53.525 10.066-15.224 2.396-31.663 6.346-49.109 11.81-21.722 6.796-36.757 13.393-37.387 13.67a9.15 9.15 0 0 0-4.681 12.063 9.15 9.15 0 0 0 8.376 5.462 9.112 9.112 0 0 0 3.685-.78c.085-.038 5.152-2.261 13.522-5.403-6.717 9.258-14.016 19.971-14.016 40.07 0 20.817 7.826 31.575 14.731 41.066 6.274 8.624 11.228 15.435 11.228 30.301s-4.955 21.677-11.228 30.301c-5.889 8.094-12.43 17.133-14.233 32.525-39.796-43.601-62.25-100.842-62.25-160.337 0-131.072 106.634-237.707 237.707-237.707 131.065 0 237.695 106.634 237.695 237.707.002 59.497-22.453 116.738-62.25 160.337z"/>
</svg>
