<svg xmlns="http://www.w3.org/2000/svg" viewBox="0 0 512 512" style="enable-background:new 0 0 512 512" xml:space="preserve">
    <circle style="fill:#f7b239" cx="256.004" cy="256.004" r="246.855"/>
    <path style="fill:#e09b2d" d="M126.306 385.694c-88.801-88.802-95.798-228.426-20.998-325.241A249.063 249.063 0 0 0 81.45 81.452c-96.401 96.401-96.401 252.698 0 349.099s252.698 96.401 349.099 0a249.34 249.34 0 0 0 20.999-23.858c-96.815 74.799-236.44 67.802-325.242-20.999z"/>
    <path style="fill:#fff" d="M332.852 355.557H179.148c-31.833 0-57.64-25.805-57.64-57.64 0-31.833 25.805-57.64 57.64-57.64h153.705c31.833 0 57.64 25.805 57.64 57.64-.001 31.834-25.808 57.64-57.641 57.64z"/>
    <path style="fill:#ccc" d="M332.852 240.279H179.148c-31.833 0-57.64 25.805-57.64 57.64 0 5.392.756 10.604 2.141 15.553 6.79-24.274 29.057-42.085 55.499-42.085h153.705c26.442 0 48.709 17.811 55.499 42.085a57.621 57.621 0 0 0 2.141-15.553c-.001-31.834-25.807-57.64-57.641-57.64z"/>
    <circle style="fill:#fff" cx="146.21" cy="183.137" r="23.536"/>
    <circle style="fill:#fff" cx="365.384" cy="183.137" r="23.536"/>
    <path d="M255.999 0C114.841 0 0 114.841 0 256.001S114.841 512 255.999 512C397.159 512 512 397.159 512 256.001 512 114.841 397.16 0 255.999 0zm0 493.701c-131.068 0-237.7-106.631-237.7-237.7s106.632-237.702 237.7-237.702c131.069 0 237.702 106.632 237.702 237.702s-106.633 237.7-237.702 237.7z"/>
    <path d="M332.853 231.13H179.148c-36.828 0-66.789 29.962-66.789 66.789s29.962 66.789 66.789 66.789h153.705c36.828 0 66.788-29.962 66.788-66.789s-29.962-66.789-66.788-66.789zm47.611 57.638h-20.837l.134-31.165c10.58 7.085 18.22 18.218 20.703 31.165zm-38.97-38.554-.166 38.554h-23.739l.17-39.341h15.094c2.95.002 5.835.281 8.641.787zm-94.604 56.853.17 39.341h-33.603l-.17-39.341h33.603zm-33.682-18.299-.17-39.341h33.603l.17 39.341h-33.603zm51.981 18.299h34.022l-.17 39.341H265.36l-.171-39.341zm-.079-18.299-.17-39.341h34.518l-.17 39.341H265.11zm-70.371-39.339.17 39.341H171.17l-.167-38.643c2.65-.45 5.369-.698 8.146-.698h15.59zm-42.005 7.856.135 31.483h-21.334c2.522-13.146 10.366-24.417 21.199-31.483zm-21.199 49.782h21.414l.137 31.709c-11.014-7.05-19.001-18.42-21.551-31.709zm39.88 38.717-.167-38.717h23.739l.17 39.341h-16.008c-2.634 0-5.214-.218-7.734-.624zm145.925.624.17-39.341h23.739l-.167 38.628c-2.677.46-5.424.712-8.23.712H317.34zm42.072-7.952.135-31.389h20.916c-2.509 13.088-10.293 24.317-21.051 31.389zM146.723 218.235c18.666 0 33.852-15.186 33.852-33.852s-15.186-33.852-33.852-33.852-33.852 15.186-33.852 33.852 15.187 33.852 33.852 33.852zm0-49.405c8.576 0 15.553 6.977 15.553 15.553s-6.977 15.553-15.553 15.553-15.553-6.977-15.553-15.553 6.978-15.553 15.553-15.553zM365.275 218.235c18.666 0 33.852-15.186 33.852-33.852s-15.186-33.852-33.852-33.852-33.852 15.186-33.852 33.852 15.186 33.852 33.852 33.852zm0-49.405c8.576 0 15.553 6.977 15.553 15.553s-6.977 15.553-15.553 15.553-15.553-6.977-15.553-15.553 6.977-15.553 15.553-15.553z"/>
</svg>
