<svg xmlns="http://www.w3.org/2000/svg" viewBox="0 0 512 512" style="enable-background:new 0 0 512 512" xml:space="preserve">
    <circle style="fill:#f7b239" cx="256.004" cy="256.004" r="246.855"/>
    <path style="fill:#e09b2d" d="M126.308 385.694c-88.802-88.802-95.799-228.426-20.999-325.242A249.184 249.184 0 0 0 81.45 81.45c-96.401 96.401-96.401 252.698 0 349.099s252.698 96.401 349.099 0a249.34 249.34 0 0 0 20.999-23.858c-96.815 74.801-236.44 67.803-325.24-20.997z"/>
    <path style="fill:#fff" d="M131.567 263.964h248.868c0 13.968-2.306 27.4-6.551 39.941H138.118c-4.246-12.541-6.551-25.972-6.551-39.941z"/>
    <path style="fill:#a81004" d="M138.118 303.905h235.765c-8.369 24.716-24.289 45.931-45.016 60.924-8.71-14.676-24.716-24.509-43.027-24.509a49.746 49.746 0 0 0-29.84 9.882 49.782 49.782 0 0 0-29.852-9.882c-18.299 0-34.317 9.833-43.015 24.509-20.726-14.993-36.646-36.208-45.015-60.924z"/>
    <path style="fill:#f95428" d="M329.868 366.586a41.63 41.63 0 0 0-1-1.757c-8.71-14.676-24.716-24.509-43.027-24.509a49.746 49.746 0 0 0-29.84 9.882 49.782 49.782 0 0 0-29.852-9.882c-18.299 0-34.317 9.833-43.015 24.509a39.965 39.965 0 0 0-1 1.757v6.185c0 40.796 33.071 73.867 73.867 73.867 40.796 0 73.867-33.071 73.867-73.867v-6.185z"/>
    <path style="fill:#e54728" d="M328.868 364.829c-8.71-14.676-24.716-24.509-43.027-24.509a49.746 49.746 0 0 0-29.84 9.882 49.782 49.782 0 0 0-29.852-9.882c-18.299 0-34.317 9.833-43.015 24.509a39.965 39.965 0 0 0-1 1.757v6.185c0 6.882.961 13.535 2.722 19.854 8.995-13.168 24.141-21.806 41.294-21.806a49.782 49.782 0 0 1 29.852 9.882 49.746 49.746 0 0 1 29.84-9.882c17.165 0 32.303 8.64 41.306 21.809a73.903 73.903 0 0 0 2.722-19.857v-6.185a43.303 43.303 0 0 0-1.002-1.757z"/>
    <path d="M256.001 0C114.841 0 0 114.841 0 255.999 0 397.159 114.841 512 256.001 512 397.159 512 512 397.159 512 255.999 512 114.841 397.159 0 256.001 0zm0 493.701c-131.069 0-237.702-106.632-237.702-237.702 0-131.068 106.632-237.7 237.702-237.7 131.068 0 237.7 106.632 237.7 237.7 0 131.069-106.633 237.702-237.7 237.702z"/>
    <path d="M380.438 254.815H131.57a9.15 9.15 0 0 0-9.15 9.15c0 14.661 2.367 29.087 7.034 42.876 8.291 24.485 23.287 45.716 43.529 61.758v4.173c0 45.776 37.241 83.017 83.017 83.017s83.017-37.241 83.017-83.017v-4.167c20.245-16.042 35.244-37.276 43.536-61.764 4.667-13.788 7.034-28.214 7.034-42.875a9.149 9.149 0 0 0-9.149-9.151zm-9.508 18.299a114.804 114.804 0 0 1-3.809 21.642H144.886a114.885 114.885 0 0 1-3.809-21.642H370.93zm-50.212 99.658c0 35.686-29.032 64.718-64.718 64.718s-64.718-29.032-64.718-64.718v-3.74c7.381-12.08 20.689-19.562 34.866-19.562 7.384 0 14.451 1.96 20.702 5.653v33.275a9.15 9.15 0 0 0 18.3 0v-33.275a40.455 40.455 0 0 1 20.69-5.653c14.17 0 27.479 7.478 34.878 19.562v3.74zm9.961-20.978c-11.137-12.901-27.534-20.623-44.839-20.623-10.624 0-20.819 2.77-29.84 8.066-9.021-5.296-19.221-8.066-29.852-8.066-17.309 0-33.704 7.721-44.828 20.615-12.623-10.71-22.679-23.853-29.663-38.732h208.694c-6.986 14.883-17.045 28.03-29.672 38.74zM206.972 214.195a9.15 9.15 0 0 0-3.657-9.523l-54.287-38.174a9.15 9.15 0 0 0-10.525 14.969l35.988 25.306-75.524 12.469a9.15 9.15 0 0 0-7.537 10.518c.739 4.481 4.619 7.66 9.017 7.66.495 0 .997-.04 1.502-.123l97.595-16.113a9.15 9.15 0 0 0 7.428-6.989zM413.032 219.243l-75.524-12.469 35.988-25.306c4.133-2.907 5.129-8.614 2.222-12.747-2.907-4.134-8.615-5.129-12.747-2.221l-54.287 38.174a9.15 9.15 0 0 0 3.772 16.512l97.595 16.113a9.154 9.154 0 0 0 10.519-7.537 9.149 9.149 0 0 0-7.538-10.519z"/>
</svg>
