<svg id="a" xmlns="http://www.w3.org/2000/svg" viewBox="0 0 592.08 560.64">
    <defs>
        <style>
            .b{fill:#fff}.h,.j{fill:none;stroke:#000}.k{fill:#f7b239}.h,.j{stroke-linejoin:round;stroke-width:15px}.l{fill:#e09b2d}.j{stroke-linecap:round}
        </style>
    </defs>
    <circle class="k" cx="73.98" cy="385.08" r="71.33"/>
    <path class="l" d="M36.5 422.55c-25.66-25.66-27.68-66.01-6.07-93.99-2.42 1.87-4.73 3.9-6.89 6.07-27.86 27.86-27.86 73.02 0 100.88s73.02 27.86 100.88 0c2.17-2.17 4.19-4.47 6.07-6.89-27.98 21.62-68.33 19.59-93.99-6.07Z"/>
    <path d="M87.57 414.87c0 3.6-.76 6.97-2.07 9.81-2.4 5.22-6.67 8.7-11.53 8.7s-9.13-3.47-11.53-8.7c-1.31-2.84-2.07-6.21-2.07-9.81 0-10.22 6.09-18.51 13.6-18.51s13.59 8.29 13.59 18.51Z"/>
    <path d="M62.45 405.06c2.4-5.22 6.67-8.7 11.53-8.7s9.13 3.47 11.53 8.7c-.42.09-6.58 2.48-11.53 2.49-6.01.01-11.01-2.39-11.53-2.49Z" style="fill:#f2f2f2"/>
    <path d="M122.18 433.88c0 1.66-.19 3.05-.52 4.26a71.155 71.155 0 0 1-26.01 14.92c.67-8.89 7.45-9.37 7.45-19.18 0-10.31-7.5-10.31-7.5-20.62s7.5-10.31 7.5-20.62-7.33-10.31-7.5-20.26c6.89.44 14.02 2.23 19.62 3.98 1.72 6.25 6.96 7.67 6.96 16.28 0 10.31-7.5 10.31-7.5 20.62s7.5 10.31 7.5 20.62Zm-77.32-41.25c0 10.31 7.5 10.31 7.5 20.62s-7.5 10.31-7.5 20.62 6.78 10.29 7.45 19.18a71.236 71.236 0 0 1-26.01-14.92c-.33-1.21-.52-2.6-.52-4.26 0-10.31 7.5-10.31 7.5-20.62s-7.5-10.31-7.5-20.62c0-8.62 5.24-10.03 6.96-16.28 5.59-1.75 12.73-3.54 19.62-3.98-.17 9.96-7.5 10.07-7.5 20.26Z" style="fill:#2197d8"/>
    <path d="M73.98 393.72c-8.96 0-16.24 9.49-16.24 21.15 0 3.86.8 7.64 2.31 10.92 2.95 6.41 8.15 10.24 13.93 10.24s10.98-3.83 13.93-10.24c1.51-3.28 2.31-7.06 2.31-10.92 0-11.66-7.28-21.15-16.24-21.15Zm0 5.29c2.97 0 5.67 1.73 7.65 4.52-2.16.64-5.14 1.38-7.65 1.38h-.03c-2.99 0-5.73-.67-7.67-1.29 1.98-2.85 4.71-4.61 7.71-4.61Zm9.13 24.57c-2.06 4.48-5.47 7.16-9.13 7.16s-7.07-2.68-9.13-7.16c-1.2-2.59-1.83-5.6-1.83-8.7 0-2.29.34-4.47.95-6.44 2.29.78 5.88 1.77 9.96 1.77h.04c3.39 0 7.06-.94 9.98-1.85.62 1.99.97 4.2.97 6.53 0 3.1-.63 6.11-1.82 8.71Zm22.45-77.75c-6.54 0-12.44 3.35-15.79 8.96l4.54 2.71c2.39-4 6.59-6.38 11.25-6.38s8.86 2.39 11.25 6.38a2.651 2.651 0 0 0 3.62.92c1.25-.75 1.66-2.37.91-3.63-3.35-5.61-9.26-8.96-15.79-8.96Zm-47.36 8.96c-3.35-5.61-9.26-8.96-15.79-8.96-6.54 0-12.44 3.35-15.79 8.96-.75 1.25-.34 2.88.91 3.63s2.88.34 3.63-.91c2.39-4 6.59-6.39 11.25-6.39s8.86 2.39 11.25 6.38a2.649 2.649 0 0 0 3.63.91c1.25-.75 1.66-2.37.91-3.63Z"/>
    <path d="M73.98 311.1C33.19 311.1 0 344.28 0 385.08c0 20.95 8.94 41.01 24.53 55.03 7.87 7.07 16.94 12.28 26.97 15.47 7.24 2.31 14.8 3.48 22.48 3.48s15.23-1.17 22.47-3.48c10.03-3.19 19.1-8.4 26.97-15.47 15.59-14.02 24.53-34.08 24.53-55.03 0-40.79-33.19-73.98-73.97-73.98ZM28.42 433.88c0-4.3 1.43-6.26 3.24-8.76 2-2.74 4.26-5.85 4.26-11.87s-2.26-9.12-4.26-11.87c-1.81-2.49-3.24-4.46-3.24-8.76s1.43-6.26 3.24-8.75c1.09-1.5 2.31-3.17 3.15-5.41 5.25-1.58 10.12-2.64 14.54-3.17-.53 2.22-1.61 3.71-2.89 5.47-2 2.74-4.26 5.85-4.26 11.86s2.26 9.12 4.26 11.87c1.81 2.49 3.24 4.46 3.24 8.76s-1.43 6.26-3.24 8.76c-2 2.74-4.26 5.85-4.26 11.87s2.26 9.12 4.26 11.87c.76 1.04 1.47 2.02 2.03 3.14a68.256 68.256 0 0 1-19.81-12.17c-.17-.86-.26-1.8-.26-2.83Zm73.06-11.87c-1.81-2.49-3.25-4.46-3.25-8.76s1.43-6.26 3.25-8.76c2-2.74 4.26-5.85 4.26-11.87s-2.26-9.12-4.26-11.86c-1.28-1.75-2.36-3.25-2.89-5.47 4.42.53 9.29 1.59 14.54 3.17.85 2.23 2.06 3.9 3.15 5.41 1.81 2.49 3.24 4.46 3.24 8.75s-1.43 6.26-3.25 8.76c-2 2.74-4.26 5.85-4.26 11.87s2.26 9.12 4.26 11.87c1.81 2.49 3.25 4.46 3.25 8.76 0 1.03-.09 1.97-.26 2.83-5.93 5.21-12.57 9.29-19.81 12.17.56-1.12 1.27-2.09 2.03-3.14 2-2.74 4.26-5.85 4.26-11.87s-2.26-9.12-4.26-11.87Zm23.19 9.4c-.52-4.45-2.41-7.06-4.11-9.4-1.81-2.49-3.25-4.46-3.25-8.76s1.43-6.26 3.25-8.76c2-2.74 4.26-5.85 4.26-11.87s-2.11-8.9-4.05-11.58c2.41.91 3.88 1.55 3.91 1.56 1.34.59 2.9-.02 3.48-1.35a2.65 2.65 0 0 0-1.35-3.49c-.18-.08-4.53-1.99-10.8-3.95-5.04-1.58-9.79-2.72-14.19-3.41 3.99-1.53 9.3-2.91 15.46-2.91 1.46 0 2.64-1.18 2.64-2.64s-1.18-2.64-2.64-2.64c-15.49 0-25.98 7.6-26.42 7.92a2.64 2.64 0 0 0-.56 3.7c.5.68 1.29 1.08 2.13 1.08.24 0 .48 0 .72.01.59 4.18 2.41 6.7 4.06 8.96 1.81 2.49 3.24 4.46 3.24 8.75s-1.43 6.26-3.25 8.76c-2 2.74-4.26 5.85-4.26 11.87s2.26 9.12 4.26 11.87c1.81 2.49 3.25 4.46 3.25 8.76s-1.43 6.26-3.24 8.76c-1.56 2.14-3.3 4.54-3.97 8.39-6.23 1.82-12.7 2.74-19.26 2.74s-13.03-.92-19.26-2.74c-.67-3.85-2.41-6.25-3.97-8.39-1.81-2.49-3.24-4.46-3.24-8.76s1.43-6.26 3.24-8.76c2-2.74 4.26-5.85 4.26-11.87s-2.26-9.12-4.26-11.87c-1.81-2.49-3.24-4.46-3.24-8.76s1.43-6.26 3.24-8.75c1.64-2.26 3.47-4.78 4.06-8.96.24 0 .48-.01.72-.01 1.46 0 2.64-1.18 2.64-2.64 0-.84-.4-1.63-1.08-2.13-.44-.32-10.93-7.92-26.42-7.92-1.46 0-2.64 1.18-2.64 2.64s1.18 2.64 2.64 2.64c6.16 0 11.48 1.38 15.47 2.91-4.4.69-9.15 1.83-14.19 3.41-6.28 1.96-10.62 3.87-10.8 3.95a2.642 2.642 0 0 0-1.35 3.49 2.64 2.64 0 0 0 2.42 1.58c.37 0 .73-.08 1.06-.23.02-.01 1.49-.65 3.91-1.56-1.94 2.68-4.05 5.77-4.05 11.58s2.26 9.12 4.26 11.87c1.81 2.49 3.24 4.46 3.24 8.76s-1.43 6.26-3.24 8.76c-1.7 2.34-3.59 4.95-4.11 9.4-11.5-12.6-17.99-29.14-17.99-46.33 0-37.88 30.81-68.69 68.69-68.69s68.69 30.81 68.69 68.69c0 17.19-6.49 33.73-17.99 46.33Z"/>
    <circle class="k" cx="513.51" cy="385.73" r="71.96"/>
    <path class="l" d="M475.71 423.53c-25.89-25.89-27.93-66.59-6.12-94.81a72.2 72.2 0 0 0-6.96 6.12c-28.1 28.1-28.1 73.66 0 101.77s73.66 28.1 101.77 0a73.3 73.3 0 0 0 6.12-6.95c-28.22 21.81-68.93 19.77-94.81-6.12Z"/>
    <path class="b" d="M477.24 388.05h72.55c0 4.07-.67 7.99-1.91 11.64h-68.73a36.188 36.188 0 0 1-1.91-11.64Z"/>
    <path d="M479.15 399.69h68.73a36.319 36.319 0 0 1-13.12 17.76 14.564 14.564 0 0 0-12.54-7.14c-3.13 0-6.19 1.01-8.7 2.88a14.447 14.447 0 0 0-8.7-2.88c-5.33 0-10 2.87-12.54 7.14a36.364 36.364 0 0 1-13.12-17.76Z" style="fill:#a81004"/>
    <path d="M535.05 417.96a14.564 14.564 0 0 0-12.83-7.65c-3.13 0-6.19 1.01-8.7 2.88a14.447 14.447 0 0 0-8.7-2.88c-5.33 0-10 2.87-12.54 7.14-.1.17-.2.34-.29.51v1.8c0 11.89 9.64 21.53 21.53 21.53s21.53-9.64 21.53-21.53v-1.8Z" style="fill:#f95428"/>
    <path d="M534.76 417.45a14.564 14.564 0 0 0-12.54-7.14c-3.13 0-6.19 1.01-8.7 2.88a14.447 14.447 0 0 0-8.7-2.88c-5.33 0-10 2.87-12.54 7.14-.1.17-.2.34-.29.51v1.8c0 2.01.28 3.95.79 5.79 2.62-3.84 7.04-6.36 12.04-6.36 3.14 0 6.19 1.01 8.7 2.88 2.51-1.88 5.56-2.89 8.7-2.88 5 0 9.42 2.52 12.04 6.36.53-1.88.79-3.83.79-5.79v-1.8a13.2 13.2 0 0 0-.29-.51Z" style="fill:#e54728"/>
    <path d="M513.51 311.1c-41.15 0-74.63 33.48-74.63 74.63s33.48 74.63 74.63 74.63 74.63-33.48 74.63-74.63-33.48-74.63-74.63-74.63Zm0 143.92c-38.21 0-69.29-31.08-69.29-69.29s31.08-69.29 69.29-69.29 69.29 31.08 69.29 69.29-31.08 69.29-69.29 69.29Z"/>
    <path d="M549.79 385.38h-72.55a2.67 2.67 0 0 0-2.67 2.67c0 4.27.69 8.48 2.05 12.5a38.687 38.687 0 0 0 12.69 18v1.22c0 13.34 10.86 24.2 24.2 24.2s24.2-10.86 24.2-24.2v-1.21a38.787 38.787 0 0 0 12.69-18 38.9 38.9 0 0 0 2.05-12.5 2.67 2.67 0 0 0-2.67-2.67Zm-2.77 5.33a33.77 33.77 0 0 1-1.11 6.31h-64.78a33.77 33.77 0 0 1-1.11-6.31h67.01Zm-14.64 29.05c0 10.4-8.46 18.87-18.87 18.87s-18.87-8.46-18.87-18.87v-1.09c2.15-3.52 6.03-5.7 10.16-5.7 2.15 0 4.21.57 6.03 1.65v9.7c0 1.47 1.2 2.67 2.67 2.66 1.47 0 2.66-1.19 2.66-2.66v-9.7a11.86 11.86 0 0 1 6.03-1.65c4.13 0 8.01 2.18 10.17 5.7v1.09Zm2.9-6.12c-3.25-3.76-8.03-6.01-13.07-6.01-3.1 0-6.07.81-8.7 2.35-2.63-1.54-5.6-2.35-8.7-2.35-5.05 0-9.83 2.25-13.07 6.01a33.375 33.375 0 0 1-8.65-11.29h60.84a33.375 33.375 0 0 1-8.65 11.29Zm-36.06-40.11c.24-1.06-.18-2.15-1.07-2.78l-15.83-11.13a2.677 2.677 0 0 0-3.71.69c-.82 1.2-.54 2.83.64 3.67l10.49 7.38-22.02 3.63a2.672 2.672 0 0 0-2.2 3.07 2.668 2.668 0 0 0 2.63 2.23c.14 0 .29-.01.44-.04l28.45-4.7c1.07-.18 1.92-.98 2.17-2.04Zm60.07 1.47-22.02-3.63 10.49-7.38c1.2-.85 1.5-2.51.65-3.72a2.665 2.665 0 0 0-3.72-.65l-15.83 11.13c-1.2.85-1.49 2.51-.65 3.72.41.59 1.04.98 1.75 1.1l28.45 4.7a2.67 2.67 0 1 0 .87-5.27Z"/>
    <path d="m536.5 136.43-48.47 31.41C447.16 105.29 376.55 63.94 296.27 63.9l-.25-56.4h.13c100.32 0 188.68 51.22 240.35 128.93Z" style="fill:#76b82a"/>
    <path d="m296.02 7.5.25 56.4h-.12c-78.48 0-147.74 39.47-189.01 99.65l-51.35-27.12C107.44 58.75 195.75 7.54 296.02 7.5Z" style="fill:#e0dd00"/>
    <path d="M584.58 295.93H67.12v-3h458.05c0-46.16-13.65-89.13-37.14-125.09l48.47-31.41c30.38 45.68 48.08 100.52 48.08 159.5Z" style="fill:#1d7e29"/>
    <path d="m404.49 166.22-26.12 51.61-26.11 51.62s.25-10.4-18.87-27.68c-9.96-9-25.49-11.87-25.49-11.87l48.3-31.84 48.29-31.84Z"/>
    <path d="m55.79 136.43 51.35 27.12c-25.24 36.81-40.02 81.37-40.02 129.38v3H7.71c0-58.98 17.7-113.82 48.08-159.5Z" style="fill:#d41f16"/>
    <path class="h" d="m296.27 63.9-.25-56.4M488.03 167.84l48.47-31.41M107.14 163.55l-51.35-27.12"/>
    <path class="j" d="M349.41 292.93c0-29.42-23.85-53.27-53.26-53.27s-53.27 23.85-53.27 53.27"/>
    <path d="M352.26 269.45s.25-10.4-18.87-27.68c-9.96-9-25.49-11.87-25.49-11.87l48.3-31.84 48.29-31.84-26.12 51.61-26.11 51.62Z" style="fill:none;stroke:#000;stroke-miterlimit:10;stroke-width:8px"/>
    <path d="M296.27 63.9h-.12c-78.48 0-147.74 39.47-189.01 99.65-25.24 36.81-40.02 81.37-40.02 129.38h458.05c0-46.16-13.65-89.13-37.14-125.09-40.87-62.55-111.48-103.9-191.76-103.94Z" style="stroke-linecap:round;stroke-width:14px;stroke-linejoin:round;fill:none;stroke:#000"/>
    <path class="j" d="M536.5 136.43C484.83 58.72 396.47 7.5 296.15 7.5h-.13c-100.27.04-188.58 51.25-240.23 128.93-30.38 45.68-48.08 100.52-48.08 159.5h576.87c0-58.98-17.7-113.82-48.08-159.5Z"/>
    <circle class="k" cx="293.75" cy="435.87" r="120.31"/>
    <path class="l" d="M230.53 499.08c-43.28-43.28-46.69-111.33-10.23-158.52a122.79 122.79 0 0 0-11.63 10.23c-46.98 46.98-46.98 123.16 0 170.14 46.98 46.98 123.16 46.98 170.14 0 3.66-3.65 7.07-7.54 10.23-11.63-47.19 36.46-115.24 33.05-158.52-10.23Z"/>
    <path class="l" d="M313.96 481.25h-41.62c-2.46 0-4.46-2-4.46-4.46s2-4.46 4.46-4.46h41.62a4.456 4.456 0 0 1 .01 8.91h-.01Z"/>
    <path d="M293.75 311.1c-68.8 0-124.77 55.97-124.77 124.77s55.97 124.77 124.77 124.77 124.77-55.97 124.77-124.77S362.55 311.1 293.75 311.1Zm0 240.62c-63.88 0-115.85-51.97-115.85-115.85s51.97-115.85 115.85-115.85S409.6 371.99 409.6 435.87s-51.97 115.85-115.85 115.85Z"/>
    <path d="M349.93 455.68H236.37c-2.46 0-4.46 2-4.46 4.46s2 4.46 4.46 4.46h113.56c2.46 0 4.46-2 4.46-4.46s-2-4.46-4.46-4.46Zm-92.95-34.03c0-9.1-7.4-16.5-16.5-16.5s-16.5 7.4-16.5 16.5 7.4 16.5 16.5 16.5 16.5-7.4 16.5-16.5Zm90.02-16.5c-9.1 0-16.5 7.4-16.5 16.5s7.4 16.5 16.5 16.5 16.5-7.4 16.5-16.5-7.4-16.5-16.5-16.5Z"/>
    <circle class="b" cx="244.99" cy="418.19" r="4.46"/>
    <circle class="b" cx="351.42" cy="418.19" r="4.46"/>
</svg>
