<svg xmlns="http://www.w3.org/2000/svg" viewBox="0 0 512.001 512.001" style="enable-background:new 0 0 512.001 512.001" xml:space="preserve">
    <circle style="fill:#f7b239" cx="256.005" cy="256.004" r="246.855"/>
    <path style="fill:#e09b2d" d="M126.308 385.694c-88.802-88.802-95.799-228.426-20.999-325.241a249.063 249.063 0 0 0-23.858 20.999c-96.401 96.401-96.401 252.698 0 349.099s252.698 96.401 349.099 0a249.34 249.34 0 0 0 20.999-23.858c-96.814 74.799-236.44 67.802-325.241-20.999z"/>
    <path d="M256.001 0c-141.159 0-256 114.841-256 256.001s114.841 256.001 256.001 256.001c141.158 0 255.999-114.841 255.999-256.001S397.159 0 256.001 0zm0 493.701c-131.069 0-237.702-106.631-237.702-237.7S124.932 18.299 256.001 18.299c131.068 0 237.7 106.632 237.7 237.702s-106.632 237.7-237.7 237.7z"/>
    <path d="M146.725 209.658c-18.666 0-33.852 15.186-33.852 33.852s15.186 33.852 33.852 33.852 33.852-15.186 33.852-33.852-15.186-33.852-33.852-33.852zM365.277 209.658c-18.666 0-33.852 15.186-33.852 33.852s15.186 33.852 33.852 33.852 33.852-15.186 33.852-33.852-15.187-33.852-33.852-33.852zM319.765 308.112a9.15 9.15 0 0 0-12.57-3.069L256 336.143l-51.195-31.101a9.15 9.15 0 0 0-9.501 15.639l43.074 26.168-43.074 26.168a9.149 9.149 0 0 0-3.069 12.57 9.143 9.143 0 0 0 12.57 3.069l51.195-31.1 51.195 31.101a9.144 9.144 0 0 0 12.57-3.069 9.15 9.15 0 0 0-3.069-12.57l-43.074-26.168 43.074-26.168c4.318-2.624 5.693-8.252 3.069-12.57z"/>
    <circle style="fill:#fff" cx="155.25" cy="235.997" r="9.15"/>
    <circle style="fill:#fff" cx="373.619" cy="235.997" r="9.15"/>
</svg>
