<svg xmlns="http://www.w3.org/2000/svg" viewBox="0 0 512.001 512.001" style="enable-background:new 0 0 512.001 512.001" xml:space="preserve">
    <circle style="fill:#f7b239" cx="256.004" cy="256.005" r="246.855"/>
    <path style="fill:#e09b2d" d="M126.306 385.694c-88.801-88.802-95.798-228.426-20.998-325.241A249.063 249.063 0 0 0 81.45 81.452c-96.401 96.401-96.401 252.698 0 349.099s252.698 96.401 349.099 0a249.34 249.34 0 0 0 20.999-23.858c-96.815 74.799-236.44 67.803-325.242-20.999z"/>
    <path d="M256.001 512.001C114.841 512.001 0 397.16 0 256.001s114.841-256 256.001-256 256.001 114.841 256.001 256.001S397.16 512.001 256.001 512.001zm0-493.701c-131.069 0-237.702 106.632-237.702 237.702s106.632 237.702 237.702 237.702S493.702 387.07 493.702 256.001 387.068 18.3 256.001 18.3z"/>
    <path d="M360.142 296.421c-.002 0 0 0 0 0-22.618 0-43.046-11.592-54.646-31.007-2.591-4.338-1.176-9.956 3.162-12.547 4.338-2.59 9.956-1.175 12.547 3.162 8.265 13.834 22.82 22.093 38.936 22.094 16.117 0 30.673-8.26 38.938-22.094a9.15 9.15 0 0 1 15.709 9.385c-11.6 19.414-32.031 31.007-54.646 31.007zM151.859 296.421c-22.618 0-43.046-11.592-54.647-31.007-2.591-4.338-1.176-9.956 3.162-12.547 4.341-2.59 9.957-1.175 12.547 3.162 8.265 13.834 22.821 22.094 38.938 22.094 16.115 0 30.671-8.26 38.936-22.094a9.15 9.15 0 0 1 15.709 9.385c-11.599 19.416-32.027 31.006-54.645 31.007z"/>
    <path style="fill:#a81004" d="M374.392 378.59c-.124.382-.257.773-.392 1.155-.095.267-.192.534-.287.803a42 42 0 0 1-22.488 24.197l-.067-.143a66.059 66.059 0 0 0-1.289-2.263c-11.22-18.907-31.837-31.568-55.432-31.568-14.41 0-27.701 4.727-38.434 12.729-10.733-8.002-24.044-12.729-38.463-12.729-23.567 0-44.202 12.662-55.413 31.568a67.028 67.028 0 0 0-1.289 2.263l-.067.143a41.998 41.998 0 0 1-22.488-24.197c-.095-.267-.192-.534-.287-.803a57.425 57.425 0 0 1-.392-1.146c4.402-13.435 15.479-24.427 30.47-27.873a392.96 392.96 0 0 1 175.844 0c14.986 3.447 26.071 14.429 30.474 27.864z"/>
    <path style="fill:#fff" d="M343.92 324.524c24.15 5.539 38.157 30.69 30.47 54.066-4.402-13.435-15.488-24.417-30.47-27.863a392.96 392.96 0 0 0-175.844 0c-14.992 3.448-26.069 14.438-30.47 27.873-7.677-23.385 6.312-48.528 30.47-54.076a392.96 392.96 0 0 1 175.844 0z"/>
    <path style="fill:#f95428" d="M349.87 402.339c.439.745.878 1.499 1.289 2.263l.067.143v.01a41.797 41.797 0 0 1-26.365 2.559 308.195 308.195 0 0 0-137.725 0 41.79 41.79 0 0 1-26.365-2.559v-.01l.067-.143c.411-.764.85-1.519 1.289-2.263 11.21-18.907 31.845-31.568 55.413-31.568 14.418 0 27.73 4.727 38.463 12.729 10.733-8.002 24.025-12.729 38.434-12.729 23.596-.002 44.213 12.661 55.433 31.568z"/>
    <path d="M379.018 340.29c-7.046-12.486-19.093-21.483-33.051-24.684-58.857-13.511-121.079-13.512-179.939 0-13.954 3.205-25.998 12.198-33.042 24.676-7.068 12.52-8.554 27.527-4.084 41.141.134.415.279.83.425 1.244.006.017.045.132.052.149l.294.827c4.654 12.941 14.473 23.59 26.981 29.282.131.066.264.128.399.189 10.167 4.521 21.276 5.6 32.127 3.117 43.715-10.023 89.924-10.023 133.639 0a51.31 51.31 0 0 0 11.453 1.303c7.067 0 14.067-1.485 20.669-4.421a9.69 9.69 0 0 0 .399-.189c12.508-5.692 22.33-16.342 26.989-29.302l.307-.861c.155-.442.309-.894.451-1.336 4.478-13.625 2.996-28.618-4.069-41.135zm-24.773 52.055c-13.723-19.092-36.089-30.725-59.806-30.725-13.738 0-26.898 3.726-38.434 10.829-11.539-7.105-24.71-10.829-38.463-10.829-23.706 0-46.06 11.625-59.787 30.725a33.061 33.061 0 0 1-10.388-13.679c4.123-9.629 12.436-16.65 22.758-19.023 56.181-12.898 115.57-12.898 171.745-.001 10.328 2.376 18.643 9.396 22.764 19.019a33.074 33.074 0 0 1-10.389 13.684zm-184.122-58.903c56.183-12.897 115.571-12.897 171.752 0 9.041 2.074 16.54 7.656 21.135 15.725a51.319 51.319 0 0 0-17.041-7.357c-58.861-13.513-121.081-13.513-179.942 0a51.266 51.266 0 0 0-17.036 7.355c4.593-8.064 12.091-13.647 21.132-15.723zm14.974 64.953a32.711 32.711 0 0 1-9.406.747c10.399-12.027 25.699-19.223 41.849-19.223 11.818 0 23.05 3.662 32.531 10.583-21.874.404-43.706 3.017-64.974 7.893zm141.809.001c-21.271-4.877-43.093-7.489-64.968-7.894 9.48-6.921 20.704-10.583 32.5-10.583 16.157 0 31.468 7.2 41.867 19.223a32.66 32.66 0 0 1-9.399-.746z"/>
    <path style="fill:#e54728" d="M357.941 195.65h-51.13a9.15 9.15 0 0 1-7.024-15.013l38.599-46.241h-31.574a9.15 9.15 0 0 1-9.15-9.15 9.15 9.15 0 0 1 9.15-9.15h51.13a9.15 9.15 0 0 1 7.024 15.013l-38.599 46.241h31.574a9.15 9.15 0 0 1 9.15 9.15 9.15 9.15 0 0 1-9.15 9.15zM498.172 158.906H387.835a9.15 9.15 0 0 1-7.024-15.013l97.806-117.169h-90.782c-5.054 0-9.15-4.097-9.15-9.15s4.095-9.15 9.15-9.15h110.337a9.15 9.15 0 0 1 7.024 15.013l-97.806 117.17h90.782a9.15 9.15 0 1 1 0 18.299z"/>
</svg>
