<svg xmlns="http://www.w3.org/2000/svg" viewBox="0 0 512.001 512.001" style="enable-background:new 0 0 512.001 512.001" xml:space="preserve">
    <circle style="fill:#f7b239" cx="256.005" cy="256.004" r="246.855"/>
    <path style="fill:#e09b2d" d="M126.308 385.694c-88.802-88.802-95.799-228.426-20.999-325.241a249.063 249.063 0 0 0-23.858 20.999c-96.401 96.401-96.401 252.698 0 349.099s252.698 96.401 349.099 0a249.34 249.34 0 0 0 20.999-23.858c-96.814 74.799-236.44 67.802-325.241-20.999z"/>
    <path style="fill:#a81004" d="M254.349 398.758c-33.349 0-60.385-27.035-60.385-60.383V290.8c0-33.349 27.035-60.383 60.383-60.383 33.349 0 60.383 27.035 60.383 60.383v47.575c.004 33.348-27.031 60.383-60.381 60.383z"/>
    <ellipse transform="rotate(-45.001 135.23 203.705)" style="fill:#fff" cx="135.231" cy="203.703" rx="67.73" ry="53.713"/>
    <ellipse transform="rotate(45.001 376.78 203.701)" style="fill:#fff" cx="376.776" cy="203.704" rx="67.73" ry="53.713"/>
    <path style="fill:#f95428" d="M269.717 335.112c4.575-2.074 9.43-3.196 14.468-3.196 11.236 0 21.605 5.551 29.95 14.932-4.111 29.34-29.315 51.908-59.789 51.908s-55.666-22.581-59.777-51.921c8.344-9.369 18.702-14.92 29.925-14.92 5.038 0 9.906 1.122 14.481 3.196 9.82 4.454 20.921 4.442 30.742.001z"/>
    <path style="fill:#fff" d="M306.352 260.098c-13.432 13.078-31.779 21.129-52.006 21.129-20.214 0-38.562-8.052-51.994-21.117 10.504-17.775 29.852-29.693 51.994-29.693 16.677 0 31.767 6.758 42.698 17.689a60.946 60.946 0 0 1 9.308 11.992z"/>
    <path d="M256.001 0c-141.159 0-256 114.841-256 256.001s114.841 256.001 256.001 256.001c141.158 0 255.999-114.841 255.999-256.001S397.159 0 256.001 0zm0 493.701c-131.069 0-237.702-106.631-237.702-237.7S124.932 18.299 256.001 18.299c131.068 0 237.7 106.632 237.7 237.702s-106.632 237.7-237.7 237.7z"/>
    <path d="M189.596 149.344c-24.513-24.512-68.842-20.067-98.818 9.91-29.976 29.975-34.421 74.305-9.91 98.818 10.649 10.649 25.034 15.832 40.363 15.832 19.953 0 41.502-8.788 58.455-25.742 29.977-29.976 34.423-74.306 9.91-98.818zm-2.728 46.307c-1.636 14.178-8.781 28.232-20.12 39.571-11.339 11.339-25.392 18.485-39.571 20.12-13.388 1.551-25.238-2.082-33.369-10.212-17.377-17.378-12.933-50.098 9.91-72.939 13.444-13.444 30.309-20.514 45.455-20.514 10.588 0 20.334 3.456 27.484 10.605 8.129 8.131 11.757 19.982 10.211 33.369zM421.223 159.253c-29.975-29.976-74.307-34.422-98.818-9.91-24.512 24.512-20.067 68.841 9.91 98.818 16.955 16.955 38.499 25.742 58.455 25.742 15.326 0 29.715-5.185 40.363-15.832 24.511-24.512 20.066-68.843-9.91-98.818zm-3.03 85.879c-8.13 8.131-19.983 11.761-33.369 10.212-14.178-1.636-28.232-8.781-39.571-20.12-11.339-11.339-18.485-25.394-20.12-39.572-1.546-13.388 2.082-25.238 10.212-33.369 7.151-7.15 16.895-10.605 27.484-10.605 15.144 0 32.012 7.072 45.455 20.515 22.841 22.841 27.286 55.561 9.909 72.939zM303.513 241.637c-13.135-13.135-30.596-20.369-49.167-20.369-24.468 0-47.408 13.1-59.864 34.177-6.321 10.659-9.661 22.886-9.661 35.36v47.565c0 3.33.233 6.623.687 9.736 4.777 34.091 34.371 59.8 68.838 59.8 34.475 0 64.074-25.703 68.844-59.742a68.26 68.26 0 0 0 .693-9.795v-47.565c0-12.468-3.339-24.698-9.661-35.375a70.203 70.203 0 0 0-10.709-13.792zm-19.329 81.13c-6.233 0-12.371 1.349-18.238 4.009a28.12 28.12 0 0 1-23.196.004c-5.874-2.663-12.016-4.012-18.258-4.012-7.461 0-14.659 1.892-21.373 5.541v-37.502c0-5.474.891-10.873 2.578-16.008 14.112 10.111 30.99 15.58 48.648 15.58 17.667 0 34.547-5.471 48.66-15.587a51.335 51.335 0 0 1 2.578 16.014v37.578c-6.767-3.674-14.03-5.617-21.399-5.617zm-29.838-83.2c13.683 0 26.55 5.33 36.229 15.009a51.438 51.438 0 0 1 3.567 3.994c-11.372 8.747-25.239 13.508-39.794 13.508-14.547 0-28.409-4.758-39.782-13.501 9.644-11.867 24.289-19.01 39.78-19.01zm0 150.04c-23.922 0-44.65-16.803-49.921-39.78 4.841-4.5 11.648-8.762 20.07-8.762 3.617 0 7.218.8 10.701 2.38a46.427 46.427 0 0 0 38.299 0c3.484-1.58 7.082-2.38 10.692-2.38 8.444 0 15.258 4.269 20.097 8.774-5.253 22.95-25.996 39.768-49.938 39.768z"/>
</svg>
