<svg height="800" width="800" xmlns="http://www.w3.org/2000/svg" viewBox="0 0 511.999 511.999" xml:space="preserve">
    <path style="fill:#ff7099" d="m501.801 120.455-60.754-60.754-271.09 271.089-99.003-99.003-60.755 60.754 159.758 159.758z"/>
    <path style="fill:#db006e" d="M169.957 462.498c-2.61 0-5.22-.995-7.212-2.987L2.987 299.753c-3.983-3.983-3.983-10.441 0-14.425l60.754-60.754a10.2 10.2 0 0 1 14.424 0l91.793 91.793L433.835 52.489c3.982-3.983 10.441-3.983 14.424 0l60.754 60.755c3.983 3.983 3.983 10.441 0 14.424L177.169 459.51a10.166 10.166 0 0 1-7.212 2.988zM24.623 292.541l145.335 145.334 317.42-317.42-46.33-46.33-263.879 263.878c-3.983 3.983-10.442 3.983-14.424 0L70.953 246.21l-46.33 46.331z"/>
    <path style="fill:#db006e" d="M355.91 234.596c-2.61 0-5.221-.995-7.212-2.987-3.983-3.983-3.983-10.441 0-14.425l74.423-74.423c3.983-3.983 10.441-3.983 14.425 0s3.983 10.441 0 14.425l-74.423 74.423a10.179 10.179 0 0 1-7.213 2.987zM454.884 135.649c-2.61 0-5.221-.995-7.212-2.987-3.983-3.983-3.983-10.441 0-14.425l2.55-2.55c3.983-3.983 10.441-3.983 14.425 0 3.983 3.983 3.983 10.441 0 14.425l-2.55 2.55a10.169 10.169 0 0 1-7.213 2.987z"/>
</svg>
