<svg height="800" width="800" xmlns="http://www.w3.org/2000/svg" viewBox="0 0 512 512" xml:space="preserve">
    <path style="fill:#fff785" d="M375.11 43.767c-54.778 0-101.432 34.766-119.11 83.436-17.678-48.67-64.332-83.436-119.11-83.436-69.97 0-126.69 56.721-126.69 126.69s84.802 151.608 126.69 190.577C166.354 388.445 256 468.233 256 468.233s89.646-79.788 119.11-107.2c41.888-38.968 126.69-120.608 126.69-190.576s-56.72-126.69-126.69-126.69z"/>
    <path style="fill:#db006e" d="M256 478.432c-2.424 0-4.848-.86-6.78-2.58-.898-.799-90.068-80.177-119.277-107.35C74.16 316.606 0 239.616 0 170.457c0-75.481 61.408-136.89 136.89-136.89 49.67 0 95.091 27.134 119.11 69.393 24.019-42.259 69.44-69.393 119.11-69.393 75.481 0 136.89 61.408 136.89 136.89 0 69.159-74.16 146.148-129.942 198.044-29.21 27.173-118.379 106.552-119.277 107.35a10.168 10.168 0 0 1-6.781 2.581zM136.89 53.966c-64.234 0-116.491 52.258-116.491 116.491 0 27.938 15.306 61.803 45.493 100.656 27.856 35.853 62.958 68.509 77.946 82.453 24.327 22.631 90.709 81.882 112.164 101.007 21.455-19.125 87.838-78.376 112.164-101.007 14.989-13.944 50.09-46.599 77.946-82.453 30.185-38.853 45.49-72.718 45.49-100.656 0-64.234-52.258-116.491-116.491-116.491-48.842 0-92.857 30.831-109.524 76.718a10.2 10.2 0 0 1-19.172 0c-16.669-45.887-60.683-76.718-109.525-76.718z"/>
    <path style="fill:#db006e" d="M376.353 324.42a10.17 10.17 0 0 1-7.507-3.292c-3.814-4.144-3.548-10.597.597-14.411 1.752-1.612 3.373-3.111 4.842-4.477 4.123-3.836 10.578-3.603 14.415.522 3.837 4.126 3.602 10.579-.522 14.415a1319.992 1319.992 0 0 1-4.919 4.549 10.173 10.173 0 0 1-6.906 2.694zM292.721 399.809a10.176 10.176 0 0 1-7.609-3.402c-3.754-4.2-3.391-10.647.808-14.401 21.992-19.654 40.851-36.579 56.058-50.31 4.18-3.775 10.629-3.446 14.404.734 3.775 4.181 3.446 10.63-.735 14.405-15.232 13.753-34.117 30.704-56.133 50.379a10.164 10.164 0 0 1-6.793 2.595z"/>
</svg>
