<svg xmlns="http://www.w3.org/2000/svg" viewBox="0 0 512 512" xml:space="preserve">
    <path style="fill:#e6e6e6" d="m98.343 357.174-51.035 29.085-37.109 115.542 115.542-37.109 29.085-51.035z"/>
    <path style="fill:#ffba57" d="m138.731 283.872-40.399 73.291.011.011 56.483 56.483.011.012 73.291-40.399z"/>
    <path transform="rotate(-134.999 199.034 312.965)" style="fill:#e8655a" d="M135.82 290.898h126.428v44.132H135.82z"/>
    <path style="fill:#ffba57" d="m501.801 54.897-44.698-44.698-287.168 242.469 89.397 89.397z"/>
    <path style="fill:#603813" d="M509.013 47.686 464.315 2.987a10.199 10.199 0 0 0-13.791-.581L163.356 244.875a9.61 9.61 0 0 0-.588.552l-.044.029-31.204 31.204-.014.037a10.2 10.2 0 0 0-1.706 2.252L90.773 349.75l-48.514 27.647a10.202 10.202 0 0 0-4.661 5.742L.489 498.682a10.2 10.2 0 0 0 12.829 12.829l115.542-37.108a10.196 10.196 0 0 0 5.742-4.661l27.647-48.514 70.801-39.027a10.178 10.178 0 0 0 2.225-1.679l.063-.042 31.204-31.204.008-.021c.197-.197.392-.396.572-.61L509.594 61.478a10.2 10.2 0 0 0-.581-13.792zm-352.385 353.35-45.664-45.664 30.148-54.693 70.208 70.208-54.692 30.149zm-37.783 55.159-71.617 23.001 53.793-53.793c3.983-3.983 3.983-10.441 0-14.425-3.983-3.983-10.441-3.983-14.425 0l-53.793 53.793 23.001-71.617 40.827-23.267 45.479 45.479-23.265 40.829zm109.283-97.349-74.973-74.973 16.781-16.781 74.973 74.973-16.781 16.781zm30.57-31.839-73.705-73.705L456.521 24.04l31.44 31.441-229.263 271.526z"/>
    <path style="fill:#603813" d="m310.707 167.891-92.369 77.991c-4.304 3.634-4.847 10.069-1.213 14.373a10.175 10.175 0 0 0 7.798 3.62c2.323 0 4.66-.789 6.574-2.406l92.369-77.991c4.304-3.634 4.848-10.069 1.213-14.373-3.634-4.304-10.067-4.848-14.372-1.214zM342.717 140.864l-7.317 6.179c-4.304 3.634-4.847 10.07-1.213 14.373a10.175 10.175 0 0 0 7.798 3.619c2.323 0 4.66-.789 6.574-2.406l7.317-6.179c4.304-3.634 4.847-10.07 1.213-14.373-3.633-4.304-10.069-4.847-14.372-1.213z"/>
</svg>
