<svg height="30" width="30" xmlns="http://www.w3.org/2000/svg" viewBox="0 0 512 512" xml:space="preserve">
    <path style="fill:#ff7099" d="M501.801 213.023H298.977V10.199h-85.954v202.824H10.199v85.954h202.824v202.824h85.954V298.977h202.824z"/>
    <path style="fill:#db006e" d="M298.978 512h-85.956c-5.632 0-10.199-4.566-10.199-10.199V309.177H10.199C4.567 309.177 0 304.61 0 298.977v-85.956c0-5.633 4.567-10.199 10.199-10.199h192.623V10.199c0-5.633 4.568-10.199 10.2-10.199h85.956c5.632 0 10.199 4.566 10.199 10.199v192.623h192.624c5.632 0 10.199 4.566 10.199 10.199v85.956c0 5.633-4.567 10.199-10.199 10.199H309.178V501.8c0 5.634-4.568 10.2-10.2 10.2zm-75.757-20.398h65.557V298.977c0-5.633 4.567-10.199 10.199-10.199h192.624v-65.557H298.978c-5.632 0-10.199-4.566-10.199-10.199V20.398h-65.557v192.623c0 5.633-4.567 10.199-10.199 10.199H20.398v65.557h192.623c5.632 0 10.199 4.566 10.199 10.199v192.626z"/>
    <path style="fill:#db006e" d="M425.307 278.438H322.24c-5.632 0-10.199-4.566-10.199-10.199s4.567-10.199 10.199-10.199h103.067c5.632 0 10.199 4.566 10.199 10.199s-4.567 10.199-10.199 10.199zM466.104 278.438h-6.901c-5.632 0-10.199-4.566-10.199-10.199s4.567-10.199 10.199-10.199h6.901c5.632 0 10.199 4.566 10.199 10.199s-4.567 10.199-10.199 10.199z"/>
</svg>
