<svg height="800" width="800" xmlns="http://www.w3.org/2000/svg" viewBox="0 0 512 512" xml:space="preserve">
    <path style="fill:#4e5058" d="M444.66 33.67H25.119v470.313h461.762V75.891L444.66 33.67zm16.568 410.455h-42.756V401.37h42.756v42.755z"/>
    <path style="fill:#e9e9ea" d="M375.716 478.33H93.528c-9.446 0-17.102-7.656-17.102-17.102V256c0-9.446 7.656-17.102 17.102-17.102h282.188c9.446 0 17.102 7.656 17.102 17.102v205.228c0 9.445-7.656 17.102-17.102 17.102z"/>
    <path style="fill:#d3d3d5" d="M93.528 461.228V256c0-9.446 7.656-17.102 17.102-17.102H93.528c-9.446 0-17.102 7.656-17.102 17.102v205.228c0 9.445 7.656 17.102 17.102 17.102h17.102c-9.445 0-17.102-7.658-17.102-17.102z"/>
    <path style="fill:#fd5e95" d="M392.818 256c0-9.446-8.854-17.102-19.775-17.102H96.2c-10.921 0-19.775 7.656-19.775 17.102v51.307h316.393V256z"/>
    <path style="fill:#d14d7b" d="M113.303 238.898H96.2c-10.921 0-19.775 7.656-19.775 17.102v51.307h17.102V256c.001-9.446 8.855-17.102 19.776-17.102z"/>
    <path style="fill:#a7a7ab" d="M136.284 8.017v188.125h239.432V8.017H136.284zm205.227 162.472h-68.409V33.67h68.409v136.819z"/>
    <path style="fill:#383a43" d="M290.205 153.386V33.67h-17.103v136.819H341.511v-17.103z"/>
    <path d="m492.549 70.223-42.221-42.221a8.012 8.012 0 0 0-5.668-2.348h-60.927V8.017A8.017 8.017 0 0 0 375.716 0H136.284a8.017 8.017 0 0 0-8.017 8.017v17.637H25.119a8.017 8.017 0 0 0-8.017 8.017v85.511a8.017 8.017 0 0 0 16.034 0V41.687h95.132v154.455a8.017 8.017 0 0 0 8.017 8.017h239.432a8.017 8.017 0 0 0 8.017-8.017V41.687h57.607l37.525 37.525v416.755H33.136v-342.58a8.017 8.017 0 0 0-16.034 0v350.597a8.017 8.017 0 0 0 8.017 8.017h461.762a8.017 8.017 0 0 0 8.017-8.017V75.891a8.013 8.013 0 0 0-2.349-5.668zm-124.85 117.902H144.301V16.033H367.7v172.092z"/>
    <path d="M461.228 452.142a8.017 8.017 0 0 0 8.017-8.017V401.37a8.017 8.017 0 0 0-8.017-8.017h-42.756a8.017 8.017 0 0 0-8.017 8.017v42.756a8.017 8.017 0 0 0 8.017 8.017h42.756zm-34.739-42.756h26.722v26.722h-26.722v-26.722zM375.716 486.347c13.851 0 25.119-11.268 25.119-25.119V256c0-13.851-11.268-25.119-25.119-25.119H93.528c-13.851 0-25.119 11.268-25.119 25.119v205.228c0 13.851 11.268 25.119 25.119 25.119h282.188zM84.443 461.228V315.324h86.046a8.017 8.017 0 0 0 0-16.034H84.443V256c0-5.01 4.076-9.086 9.086-9.086h282.188c5.01 0 9.086 4.076 9.086 9.086v43.29h-180.11a8.017 8.017 0 0 0 0 16.034h180.109v145.904c0 5.01-4.076 9.086-9.086 9.086H93.528c-5.01-.001-9.085-4.077-9.085-9.086zM341.511 25.653h-68.409a8.017 8.017 0 0 0-8.017 8.017v136.818a8.017 8.017 0 0 0 8.017 8.017h68.409a8.017 8.017 0 0 0 8.017-8.017V33.67a8.017 8.017 0 0 0-8.017-8.017zm-8.016 136.819h-52.376V41.687h52.376v120.785z"/>
    <path d="M140.56 366.63h188.125a8.017 8.017 0 0 0 0-16.034H140.56a8.017 8.017 0 0 0 0 16.034zM140.56 400.835h188.125a8.017 8.017 0 0 0 0-16.034H140.56a8.017 8.017 0 0 0 0 16.034zM140.56 435.04h188.125a8.017 8.017 0 0 0 0-16.034H140.56a8.017 8.017 0 0 0 0 16.034z"/>
</svg>
