<?xml version="1.0" encoding="utf-8"?><svg viewBox="0 0 512 512" xmlns="http://www.w3.org/2000/svg" xmlns:xlink="http://www.w3.org/1999/xlink"><style>:root>svg{display:none}:root>svg:target{display:block}</style>
<svg id="arrow-prev" xmlns="http://www.w3.org/2000/svg" viewBox="0 0 502.5 502.5" style="enable-background:new 0 0 502.5 502.5" xml:space="preserve">
    <path style="fill:#cb5a30" d="m338.65 10.9-223.6 223.6c-4.4 4.4-6.8 10.8-6.8 16.8s2.4 12 6.8 16.8l223.6 223.6c9.2 9.2 24 9.2 33.2 0l16.4-16.4c9.2-9.2 9.2-24 0-33.2l-190.4-190.4 190.8-190.8c9.2-9.2 9.2-24 0-33.2l-16.4-16.4c-9.2-9.6-24.4-9.6-33.6-.4z"/>
    <path style="fill:#e07d46" d="M133.45 244.1c-2 2-3.2 4.8-2.8 7.6 0 2.8.8 5.2 2.8 7.6l183.2 183.2 20 20 11.2 11.2c4 4 10.4 4 14.4 0l7.6-7.6c4-4 4-10.4 0-14.4l-182.8-182.8-16.8-16.8 16.8-16.8 182.8-182.8c4-4 4-10.4 0-14.4l-7.6-7.6c-4-4-10.4-4-14.4 0l-214.4 213.6z"/>
    <path d="M355.05 502.5c-7.2 0-14.4-2.8-19.6-8l-223.6-223.6c-5.2-5.2-8-12-8-19.6 0-7.2 2.8-14.4 8-19.6L335.45 8.1l2.8 2.8-2.8-2.8c10.8-10.8 28.4-10.8 38.8 0l16.4 16.4c5.2 5.2 8 12 8 19.6 0 7.2-2.8 14.4-8 19.6l-187.6 187.6 187.6 187.6c5.2 5.2 8 12 8 19.6 0 7.2-2.8 14.4-8 19.6l-16.4 16.4c-4.8 5.2-11.6 8-19.2 8zm-13.6-488.8-223.6 223.6c-3.6 3.6-5.6 8.8-5.6 14s2 10.4 5.6 14l223.6 223.6c3.6 3.6 8.4 5.6 14 5.6s10-2 14-5.6l16.4-16.4c3.6-3.6 5.6-8.4 5.6-14s-2-10-5.6-14l-190.4-190.4c-1.6-1.6-1.6-4 0-5.6l190.8-190.8c3.6-3.6 5.6-8.4 5.6-14 0-5.2-2-10-5.6-14l-16.4-16.4c-8.4-7.2-20.8-7.2-28.4.4z"/>
    <path d="M355.05 480.1c-4 0-7.2-1.6-10-4l-214.4-214.4c-2.8-2.8-4.4-6.4-4-10.4 0-3.6 1.2-7.6 4-10l187.2-187.2c1.6-1.6 4-1.6 5.6 0s1.6 4 0 5.6l-187.2 187.2c-1.2 1.2-2 2.8-1.6 4.4 0 2 .4 3.6 1.6 4.8l214.4 214.4c2.4 2.4 6.4 2.4 8.8 0l7.6-7.6c2.4-2.4 2.4-6.4 0-8.8l-199.6-199.6c-.8-.8-1.2-1.6-1.2-2.8s.4-2 1.2-2.8l200-200c1.2-1.2 2-2.8 2-4.4s-.8-3.2-2-4.4l-7.6-7.6c-2.4-2.4-6.4-2.4-8.8 0l-4 4c-1.6 1.6-4 1.6-5.6 0s-1.6-4 0-5.6l4-4c5.6-5.6 14.4-5.6 20 0l7.6 7.6c2.8 2.8 4 6.4 4 10 0 4-1.6 7.2-4 10l-197.2 196.8 196.8 196.8c5.6 5.6 5.6 14.4 0 20l-7.6 7.6c-2.4 2.8-6 4.4-10 4.4z"/>
</svg>
<svg id="arrow-next" xmlns="http://www.w3.org/2000/svg" viewBox="0 0 502.4 502.4" style="enable-background:new 0 0 502.4 502.4" xml:space="preserve">
    <path style="fill:#cb5a30" d="M164.4 491.6 388 268c4.4-4.4 6.8-10.8 6.8-16.8s-2.4-12-6.8-16.8L164.4 10.8c-9.2-9.2-24-9.2-33.2 0l-16.4 16.4c-9.2 9.2-9.2 24 0 33.2l190.4 190.4-190.8 190.8c-9.2 9.2-9.2 24 0 33.2l16.4 16.4c9.2 9.6 24.4 9.6 33.6.4z"/>
    <path style="fill:#e07d46" d="m194.8 68.8 174.8 174.8c2 2 3.2 4.8 2.8 7.6 0 2.8-.8 5.2-2.8 7.6L155.2 473.2c-4 4-10.4 4-14.4 0l-7.6-7.6c-4-4-4-10.4 0-14.4L316 268.4l16.8-16.8-16.8-16.8L133.2 52c-4-4-4-10.4 0-14.4l7.6-7.6c4-4 10.4-4 14.4 0L194 68.8h.8z"/>
    <path d="M147.6 502.4c-7.2 0-14.4-2.8-19.6-8L111.6 478c-5.2-5.2-8-12-8-19.6 0-7.2 2.8-14.4 8-19.6l187.6-187.6L111.6 63.6c-5.2-5.2-8-12-8-19.6 0-7.2 2.8-14.4 8-19.6L128 8c5.2-5.2 12-8 19.6-8 7.2 0 14.4 2.8 19.6 8l223.6 223.6c5.2 5.2 8 12 8 19.6 0 7.2-2.8 14.4-8 19.6L167.2 494.4c-5.2 5.2-12.4 8-19.6 8zM148 8c-5.2 0-10 2-14 5.6L117.6 30c-3.6 3.6-5.6 8.4-5.6 14 0 5.2 2 10 5.6 14L308 248.4c1.6 1.6 1.6 4 0 5.6L117.2 444.8c-3.6 3.6-5.6 8.4-5.6 14 0 5.2 2 10 5.6 14l16.4 16.4c3.6 3.6 8.4 5.6 14 5.6 5.2 0 10-2 14-5.6l223.6-223.6c3.6-3.6 5.6-8.8 5.6-14s-2-10.4-5.6-14L161.6 14c-3.6-4-8.4-6-13.6-6z"/>
    <path d="M147.6 480c-4 0-7.2-1.6-10-4l-7.6-7.6c-2.8-2.8-4-6.4-4-10s1.6-7.2 4-10l197.2-197.2L130.4 54.4c-2.8-2.8-4-6.4-4-10 0-4 1.6-7.2 4-10l7.6-7.6c2.8-2.8 6.4-4 10-4 4 0 7.2 1.6 10 4L173.2 42c1.6 1.6 1.6 4 0 5.6s-4 1.6-5.6 0l-15.2-15.2c-1.2-1.2-2.8-2-4.4-2-1.6 0-3.2.8-4.4 2L136 40c-1.2 1.2-2 2.8-2 4.4s.8 3.2 2 4.4l199.6 199.6c1.6 1.6 1.6 4 0 5.6l-200 200c-1.2 1.2-2 2.8-2 4.4s.8 3.2 2 4.4l7.6 7.6c2.4 2.4 6.4 2.4 8.8 0L366.4 256c1.2-1.2 2-2.8 1.6-4.4 0-2-.8-3.6-1.6-4.8L191.6 72c-1.6-1.6-1.6-4 0-5.6s4-1.6 5.6 0L372 241.2c2.8 2.8 4.4 6.4 4 10.4 0 3.6-1.2 7.6-4 10L157.6 476c-2.4 2.4-6 4-10 4z"/>
</svg>
