<svg xmlns="http://www.w3.org/2000/svg" viewBox="0 0 512.001 512.001" style="enable-background:new 0 0 512.001 512.001" xml:space="preserve">
    <path style="fill:#ededed" d="M503.916 256c0 136.92-110.996 247.916-247.916 247.916S8.084 392.919 8.084 256 119.08 8.084 256 8.084 503.916 119.08 503.916 256z"/>
    <path style="fill:#c6c6c6" d="M450.021 256c0 107.155-86.866 194.021-194.021 194.021S61.979 363.155 61.979 256 148.845 61.979 256 61.979 450.021 148.845 450.021 256z"/>
    <path style="fill:#969696" d="M396.126 256c0 77.39-62.737 140.126-140.126 140.126S115.874 333.39 115.874 256 178.61 115.874 256 115.874 396.126 178.61 396.126 256z"/>
    <path style="fill:#ededed" d="M316.003 256c0 33.139-26.864 60.003-60.003 60.003S195.997 289.139 195.997 256s26.864-60.003 60.003-60.003 60.003 26.864 60.003 60.003z"/>
    <path style="fill:#73a4bc" d="M256 169.768c-47.625 0-86.232 38.607-86.232 86.232s38.607 86.232 86.232 86.232 86.232-38.607 86.232-86.232-38.607-86.232-86.232-86.232zm0 118.569c-17.86 0-32.337-14.477-32.337-32.337S238.14 223.663 256 223.663 288.337 238.14 288.337 256 273.86 288.337 256 288.337z"/>
    <path style="fill:#98c7e5" d="M336.337 287.329c-12.539 32.129-43.768 54.903-80.337 54.903s-67.797-22.774-80.337-54.903h72.299a32.369 32.369 0 0 0 8.038 1.008c2.775 0 5.468-.35 8.038-1.008h72.299z"/>
    <path style="fill:#ff6029" d="M223.663 256c0 17.86 14.477 32.337 32.337 32.337v96.56c0 6.287-5.363 11.268-11.629 10.754C172.422 389.74 115.874 329.474 115.874 256s56.549-133.74 128.497-139.651c6.266-.515 11.629 4.466 11.629 10.753v96.561c-17.86 0-32.337 14.477-32.337 32.337z"/>
    <path style="fill:#b7441c" d="M247.962 287.329H119.393A140.604 140.604 0 0 1 115.874 256c0-3.628.15-7.221.421-10.779h101.547c3.671 0 6.498 3.21 6.057 6.855a32.788 32.788 0 0 0-.236 3.924c0 15.084 10.329 27.755 24.299 31.329z"/>
    <path style="fill:#ffbc00" d="M256 61.979v161.684c-17.86 0-32.337 14.477-32.337 32.337H73.075c-6.168 0-11.125-5.169-10.77-11.327C68.168 142.791 152.647 61.979 256 61.979zm16.707.724A196.413 196.413 0 0 0 256 61.979v161.684a32.8 32.8 0 0 1 3.022.139c7.386.686 13.685-5.351 13.685-12.768V62.703z"/>
    <path style="fill:#e0a000" d="M288.337 64.677V256c0-17.86-14.478-32.337-32.337-32.337S223.663 238.14 223.663 256V64.677a195.15 195.15 0 0 1 64.674 0z"/>
    <path style="fill:#92b703" d="M279.557 9.189c118.117 11.134 212.12 105.137 223.254 223.254 1.191 12.639-8.778 23.557-21.474 23.557h-193c0-17.86-14.477-32.337-32.337-32.337v-193c0-12.696 10.919-22.665 23.557-21.474z"/>
    <path d="M278.623 394.411a8.083 8.083 0 0 1 6.178-9.619c49.985-10.886 89.551-50.167 100.797-100.075a8.084 8.084 0 0 1 15.773 3.554c-12.622 56.014-57.029 100.102-113.13 112.319a8.085 8.085 0 0 1-9.618-6.179zm225.255-114.53c-4.425-.58-8.484 2.545-9.061 6.972-15.518 119.137-117.971 208.978-238.31 208.978-132.523 0-240.338-107.815-240.338-240.338 0-120.34 89.841-222.792 208.978-238.312 4.427-.577 7.55-4.633 6.973-9.061s-4.65-7.55-9.061-6.972C161.822 9.125 105.452 39.116 64.33 85.596 22.846 132.484 0 192.822 0 255.493c0 68.515 26.681 132.93 75.129 181.377S187.991 512 256.507 512c62.671 0 123.009-22.846 169.898-64.331 46.479-41.122 76.47-97.491 84.447-158.729a8.084 8.084 0 0 0-6.974-9.059zM248.422 53.151V29.696c0-8.344 3.54-16.353 9.713-21.97A29.708 29.708 0 0 1 280.871.13c122.32 11.53 219.469 108.679 231 231a29.707 29.707 0 0 1-7.596 22.735 29.77 29.77 0 0 1-21.971 9.713H350.656c-3.887 45.669-40.396 82.179-86.066 86.066v35.011a18.963 18.963 0 0 1-6.099 13.908 18.893 18.893 0 0 1-14.3 4.923c-37.024-3.041-71.361-19.785-96.687-47.146-23.633-25.532-37.414-58.211-39.277-92.764h-35.02a19.007 19.007 0 0 1-13.765-5.935c-3.535-3.747-5.395-8.836-5.098-13.963C60.343 139.454 144.87 57.239 248.422 53.151zm0 242.02c-15.852-3.225-28.368-15.741-31.593-31.593h-92.401c4.003 64.791 55.748 118.427 121.089 123.795a2.659 2.659 0 0 0 2.021-.702c.331-.305.885-.972.885-2.017v-89.483zm85.995-31.593h-38.234c-3.225 15.853-15.74 28.368-31.592 31.593v38.232c36.748-3.784 66.041-33.078 69.826-69.825zm-69.826-47.761c15.852 3.225 28.367 15.74 31.592 31.592h186.121c3.859 0 7.415-1.573 10.014-4.427 2.588-2.845 3.816-6.515 3.456-10.335-10.804-114.6-101.82-205.617-216.42-216.42-3.822-.36-7.49.868-10.335 3.456-2.854 2.599-4.427 6.155-4.427 10.014v186.12h-.001zm-32.404 39.676c0 13.41 10.909 24.319 24.319 24.319 13.41 0 24.318-10.909 24.318-24.319s-10.908-24.318-24.318-24.318c-13.408 0-24.319 10.908-24.319 24.318zM70.486 244.609a2.55 2.55 0 0 0 .716 1.934 2.74 2.74 0 0 0 2.006.866H216.83c3.225-15.852 15.742-28.368 31.593-31.592V69.333c-94.991 4.077-172.43 79.595-177.937 175.276zm2.264 41.95a8.084 8.084 0 1 0-15.945 2.674c7.83 46.672 32.067 89.394 68.247 120.297 36.588 31.251 83.272 48.463 131.456 48.463s94.868-17.211 131.455-48.463c36.181-30.903 60.417-73.626 68.247-120.297a8.083 8.083 0 0 0-6.634-9.31 8.075 8.075 0 0 0-9.311 6.636c-15.094 89.968-92.374 155.266-183.756 155.266S87.844 376.527 72.75 286.559z"/>
</svg>
