<svg xmlns="http://www.w3.org/2000/svg" viewBox="0 0 512 512" style="enable-background:new 0 0 512 512" xml:space="preserve">
    <path style="fill:#fe5f1a" d="M223.319 73.532V503.83c118.823 0 215.149-96.326 215.149-215.149S342.142 73.532 223.319 73.532z"/>
    <path style="fill:#fe834d" d="M405.787 288.681c0-118.823-81.693-215.149-182.468-215.149-118.823 0-215.149 96.326-215.149 215.149S104.496 503.83 223.319 503.83c100.775 0 182.468-96.326 182.468-215.149z"/>
    <circle style="fill:#fff" cx="223.319" cy="288.681" r="157.957"/>
    <circle style="fill:#fea680" cx="223.319" cy="288.681" r="100.766"/>
    <circle style="fill:#fe5f1a" cx="223.319" cy="288.681" r="43.574"/>
    <path style="fill:#fe5f1a" d="m491.067 20.933-65.475 34.662 53.92 38.514 11.555-11.555c17.017-17.014 17.017-44.605 0-61.621z"/>
    <path style="fill:#fe834d" d="M429.444 20.933 417.89 32.487l23.109 38.514 50.069-50.069c-17.018-17.016-44.607-17.016-61.624.001z"/>
    <path style="fill:#fedc3d" d="m265.243 246.757 44.349 17.274L456.403 117.22l-30.811-46.218z"/>
    <path style="fill:#fff1b1" d="M394.78 55.597 247.969 202.408l17.274 44.349L433.295 78.705z"/>
    <path style="fill:#b9b9b9" d="m448.702 63.298-19.258 3.852-3.852 19.258 30.811 30.812 23.11-23.109z"/>
    <path transform="rotate(134.999 421.73 59.457)" style="fill:#dcdcdc" d="M405.389 37.671h32.681v43.574h-32.681z"/>
    <path style="fill:#ffdbcc" d="m247.968 202.408-12.667 44.335 7.276 22.68 22.68 7.276 44.335-12.667z"/>
    <path style="fill:#737373" d="m223.319 288.681 41.938-11.982-29.956-29.956z"/>
    <path d="M512 51.745c0-13.822-5.383-26.816-15.156-36.589C487.07 5.381 474.076 0 460.255 0c-13.822 0-26.816 5.381-36.588 15.155l-34.659 34.658-48.661 48.661c-35.156-21.678-75.469-33.112-117.028-33.112C100.18 65.362 0 165.543 0 288.681S100.18 512 223.319 512s223.319-100.181 223.319-223.319c0-31.959-6.614-62.822-19.655-91.734a8.168 8.168 0 0 0-10.806-4.088 8.17 8.17 0 0 0-4.087 10.808c12.082 26.786 18.209 55.39 18.209 85.015 0 114.129-92.851 206.979-206.979 206.979S16.34 402.81 16.34 288.681 109.191 81.702 223.319 81.702c37.215 0 73.346 9.889 105.127 28.673l-30.084 30.084c-23.141-11.724-48.949-17.906-75.043-17.906-91.603 0-166.128 74.524-166.128 166.128s74.524 166.128 166.128 166.128 166.128-74.524 166.128-166.128c0-15.686-2.192-31.227-6.515-46.19a8.17 8.17 0 0 0-15.699 4.536 150.016 150.016 0 0 1 5.873 41.654c0 82.592-67.194 149.787-149.787 149.787S73.532 371.273 73.532 288.681s67.194-149.787 149.787-149.787a150.09 150.09 0 0 1 62.809 13.799l-31.619 31.619a108.655 108.655 0 0 0-31.191-4.567c-60.067 0-108.936 48.868-108.936 108.936s48.868 108.936 108.936 108.936c58.039 0 105.826-45.368 108.791-103.282a8.17 8.17 0 0 0-7.742-8.578c-4.505-.229-8.347 3.235-8.578 7.741-2.52 49.222-43.139 87.779-92.472 87.779-51.057 0-92.596-41.538-92.596-92.596s41.538-92.596 92.596-92.596a92.5 92.5 0 0 1 17.876 1.756c-.069.102-.131.208-.195.313a8.087 8.087 0 0 0-.486.922c-.023.051-.049.1-.071.153-.126.3-.236.605-.326.915-.007.02-10.625 37.182-10.625 37.182a51.618 51.618 0 0 0-6.176-.389c-28.531 0-51.745 23.213-51.745 51.745s23.212 51.745 51.745 51.745c17.693 0 33.975-8.906 43.556-23.821a8.17 8.17 0 0 0-2.459-11.289 8.17 8.17 0 0 0-11.29 2.46c-6.559 10.211-17.702 16.309-29.806 16.309-19.521 0-35.404-15.882-35.404-35.404s15.883-35.404 35.404-35.404c.535 0 1.069.029 1.602.053l-9.459 33.107a8.169 8.169 0 0 0 10.101 10.099l86.273-24.65a8.183 8.183 0 0 0 3.533-2.077L462.179 123l34.666-34.666C506.619 78.56 512 65.566 512 51.745zm-55.597 53.921-50.068-50.069 11.554-11.554 50.069 50.068-11.555 11.555zM309.591 252.477l-19.257-19.257L425.592 97.963l19.257 19.258-135.258 135.256zm-41.956 15.045-23.157-23.158 7.532-26.36 41.985 41.986-26.36 7.532zm79.611-152.837.05-.05L394.78 67.15l19.257 19.258L278.78 221.664l-19.257-19.258 87.723-87.721zM239.343 262.339l10.318 10.318-14.446 4.128 4.128-14.446zM485.29 76.778l-5.777 5.778-50.069-50.069 5.777-5.777c6.688-6.688 15.578-10.371 25.035-10.371s18.347 3.683 25.035 10.371c6.688 6.686 10.37 15.577 10.37 25.035s-3.683 18.348-10.371 25.033z"/>
</svg>
