<svg xmlns="http://www.w3.org/2000/svg" viewBox="0 0 512.003 512.003" style="enable-background:new 0 0 512.003 512.003" xml:space="preserve">
    <circle style="fill:#f4ad47" cx="256" cy="256.001" r="86.184"/>
    <path style="fill:#f4ad47" d="m474.634 288.397 25.86-15.948v-32.895l-25.86-15.948h-28.823a191.206 191.206 0 0 0-9.207-34.469l24.937-14.396 14.421-26.742-16.447-28.486-30.369-.882-24.977 14.419a193.792 193.792 0 0 0-25.216-25.216l14.421-24.977-.882-30.369-28.487-16.448-26.742 14.421-14.398 24.937a191.123 191.123 0 0 0-34.469-9.207V37.367l-15.948-25.86h-32.895l-15.948 25.86V66.19a191.206 191.206 0 0 0-34.469 9.207L174.738 50.46l-26.743-14.42-28.486 16.447-.882 30.369 14.421 24.977a193.792 193.792 0 0 0-25.216 25.216l-24.977-14.421-30.369.882-16.447 28.486 14.421 26.742 24.937 14.396a191.063 191.063 0 0 0-9.207 34.469H37.366l-25.86 15.95v32.895l25.86 15.948h28.823a191.206 191.206 0 0 0 9.207 34.469l-24.937 14.398-14.421 26.742 16.447 28.486 30.369.882 24.977-14.421a193.792 193.792 0 0 0 25.216 25.216l-14.421 24.977.882 30.369 28.486 16.447 26.742-14.421 14.398-24.937a191.123 191.123 0 0 0 34.469 9.207v28.823l15.948 25.86h32.895l15.948-25.86V445.81a191.206 191.206 0 0 0 34.469-9.207l14.398 24.937 26.742 14.421 28.486-16.447.882-30.369-14.421-24.977a193.792 193.792 0 0 0 25.216-25.216l24.977 14.421 30.369-.882 16.447-28.486-14.421-26.742-24.937-14.398a191.04 191.04 0 0 0 9.207-34.469l28.826.001zM256 400.864c-80.006 0-144.863-64.857-144.863-144.863S175.994 111.139 256 111.139s144.863 64.857 144.863 144.863S336.006 400.864 256 400.864z"/>
    <path style="fill:#231f20" d="M256 99.633c-86.222 0-156.369 70.147-156.369 156.369S169.778 412.37 256 412.37s156.369-70.147 156.369-156.369S342.222 99.633 256 99.633zm0 289.726c-73.534 0-133.357-59.823-133.357-133.357S182.466 122.644 256 122.644s133.357 59.823 133.357 133.357S329.534 389.359 256 389.359z"/>
    <path style="fill:#231f20" d="m506.533 229.761-25.859-15.948a11.5 11.5 0 0 0-6.039-1.713h-19.341a203.804 203.804 0 0 0-4.736-17.734l16.736-9.663a11.517 11.517 0 0 0 4.374-4.503l14.421-26.742a11.509 11.509 0 0 0-.163-11.214l-16.449-28.488a11.506 11.506 0 0 0-9.629-5.748l-30.369-.882c-2.143-.06-4.24.47-6.086 1.536l-16.778 9.688a205.902 205.902 0 0 0-12.965-12.964l9.688-16.78a11.51 11.51 0 0 0 1.536-6.086l-.883-30.368a11.506 11.506 0 0 0-5.749-9.63l-28.486-16.447a11.504 11.504 0 0 0-11.214-.163l-26.743 14.421a11.502 11.502 0 0 0-4.504 4.375l-9.662 16.736a203.521 203.521 0 0 0-17.733-4.736V37.367c0-2.133-.593-4.224-1.711-6.04L282.24 5.467a11.506 11.506 0 0 0-9.794-5.465h-32.893a11.502 11.502 0 0 0-9.793 5.467l-15.948 25.86a11.5 11.5 0 0 0-1.713 6.039v19.341a203.448 203.448 0 0 0-17.734 4.736l-9.663-16.736a11.52 11.52 0 0 0-4.503-4.375l-26.742-14.421a11.504 11.504 0 0 0-11.214.163l-28.486 16.447a11.506 11.506 0 0 0-5.748 9.63l-.882 30.371c-.062 2.131.47 4.24 1.536 6.086l9.688 16.78a205.353 205.353 0 0 0-12.964 12.964l-16.778-9.688a11.435 11.435 0 0 0-6.086-1.536l-30.369.882a11.504 11.504 0 0 0-9.63 5.748l-16.447 28.486a11.504 11.504 0 0 0-.163 11.214l14.421 26.742a11.506 11.506 0 0 0 4.375 4.503l16.736 9.663a203.258 203.258 0 0 0-4.736 17.734H37.366a11.5 11.5 0 0 0-6.039 1.713l-25.86 15.947A11.501 11.501 0 0 0 0 239.554v32.895c0 3.991 2.068 7.699 5.467 9.793l25.86 15.948a11.5 11.5 0 0 0 6.039 1.713h19.341a204.066 204.066 0 0 0 4.736 17.734L44.707 327.3a11.52 11.52 0 0 0-4.375 4.503l-14.421 26.742a11.509 11.509 0 0 0 .163 11.214l16.447 28.488a11.512 11.512 0 0 0 9.63 5.749l30.371.882c2.143.063 4.24-.47 6.086-1.536l16.78-9.688a206.421 206.421 0 0 0 12.964 12.964l-9.688 16.78a11.5 11.5 0 0 0-1.536 6.086l.882 30.369a11.504 11.504 0 0 0 5.748 9.63l28.488 16.447a11.506 11.506 0 0 0 11.214.163l26.742-14.421a11.506 11.506 0 0 0 4.503-4.375l9.663-16.736a203.258 203.258 0 0 0 17.734 4.736v19.341c0 2.133.593 4.224 1.713 6.04l15.948 25.859a11.506 11.506 0 0 0 9.793 5.465h32.893c3.991 0 7.699-2.068 9.793-5.465l15.95-25.859a11.503 11.503 0 0 0 1.713-6.04v-19.341a204.236 204.236 0 0 0 17.733-4.736l9.662 16.736a11.522 11.522 0 0 0 4.504 4.375l26.743 14.421a11.51 11.51 0 0 0 11.214-.163l28.486-16.447a11.512 11.512 0 0 0 5.749-9.63l.882-30.369c.062-2.131-.47-4.24-1.536-6.086l-9.688-16.78a205.902 205.902 0 0 0 12.965-12.964l16.778 9.688a11.503 11.503 0 0 0 6.086 1.536l30.369-.882a11.504 11.504 0 0 0 9.629-5.749l16.449-28.488a11.504 11.504 0 0 0 .163-11.214l-14.421-26.742a11.517 11.517 0 0 0-4.374-4.503l-16.736-9.663a203.804 203.804 0 0 0 4.736-17.734h19.341c2.133 0 4.225-.593 6.039-1.713l25.859-15.948a11.508 11.508 0 0 0 5.467-9.793v-32.895a11.517 11.517 0 0 0-5.471-9.793zm-17.544 36.266-17.617 10.864h-25.56a11.51 11.51 0 0 0-11.345 9.584 180.042 180.042 0 0 1-8.654 32.396 11.508 11.508 0 0 0 5.037 13.961l22.111 12.766 9.824 18.218-10.026 17.363-20.69.601-22.15-12.79a11.51 11.51 0 0 0-14.602 2.61 182.784 182.784 0 0 1-23.719 23.719 11.507 11.507 0 0 0-2.612 14.603l12.79 22.151-.601 20.69-17.362 10.026-18.219-9.824-12.764-22.111a11.51 11.51 0 0 0-13.961-5.037 180.33 180.33 0 0 1-32.396 8.654 11.505 11.505 0 0 0-9.583 11.345v25.56l-10.867 17.615h-20.05l-10.866-17.617v-25.56a11.508 11.508 0 0 0-9.583-11.345 180.125 180.125 0 0 1-32.395-8.654 11.505 11.505 0 0 0-13.961 5.037l-12.765 22.111-18.218 9.826-17.363-10.026-.6-20.689 12.79-22.153a11.504 11.504 0 0 0-2.612-14.603 182.706 182.706 0 0 1-23.719-23.717 11.504 11.504 0 0 0-14.602-2.612l-22.151 12.79-20.689-.601-10.026-17.363 9.824-18.218 22.111-12.766a11.507 11.507 0 0 0 5.037-13.961 180.314 180.314 0 0 1-8.654-32.395 11.505 11.505 0 0 0-11.345-9.583H40.629l-17.618-10.866v-20.05l17.618-10.866h25.56a11.508 11.508 0 0 0 11.345-9.583 180.125 180.125 0 0 1 8.654-32.395 11.507 11.507 0 0 0-5.037-13.961L59.04 166.407l-9.824-18.218 10.026-17.363 20.689-.6 22.151 12.79a11.506 11.506 0 0 0 14.604-2.612 182.472 182.472 0 0 1 23.719-23.719 11.506 11.506 0 0 0 2.612-14.604l-12.79-22.151.6-20.69 17.363-10.026 18.218 9.826 12.765 22.111a11.507 11.507 0 0 0 13.961 5.037 180.114 180.114 0 0 1 32.396-8.652 11.506 11.506 0 0 0 9.584-11.345v-25.56l10.864-17.618h20.05l10.866 17.618v25.56c0 5.613 4.05 10.407 9.584 11.345a180.16 180.16 0 0 1 32.394 8.652 11.508 11.508 0 0 0 13.961-5.037l12.764-22.111 18.219-9.824 17.362 10.026.601 20.69-12.79 22.151a11.508 11.508 0 0 0 2.612 14.604 182.722 182.722 0 0 1 23.719 23.719 11.503 11.503 0 0 0 14.602 2.61l22.15-12.79 20.69.6 10.026 17.363-9.824 18.218-22.111 12.765a11.507 11.507 0 0 0-5.037 13.961 180.264 180.264 0 0 1 8.654 32.395 11.506 11.506 0 0 0 11.345 9.584h25.56l17.618 10.866v20.049z"/>
    <path style="fill:#231f20" d="M256 158.312c-53.866 0-97.69 43.823-97.69 97.69s43.823 97.69 97.69 97.69 97.69-43.823 97.69-97.69-43.824-97.69-97.69-97.69zm0 172.368c-41.177 0-74.679-33.5-74.679-74.679s33.5-74.679 74.679-74.679 74.679 33.5 74.679 74.679-33.5 74.679-74.679 74.679z"/>
</svg>
