<svg xmlns="http://www.w3.org/2000/svg" viewBox="0 0 512 512" style="enable-background:new 0 0 512 512" xml:space="preserve">
    <path style="fill:#ff5e5b" d="M477.887 512H79.158c-12.426 0-22.5-10.074-22.5-22.5v-467c0-12.426 10.074-22.5 22.5-22.5h398.729c12.426 0 22.5 10.074 22.5 22.5v467c0 12.426-10.073 22.5-22.5 22.5z"/>
    <path style="fill:#ff423d" d="M477.887 0H278.522v512h199.365c12.426 0 22.5-10.074 22.5-22.5v-467c0-12.426-10.073-22.5-22.5-22.5z"/>
    <path style="fill:#48aee2" d="m385.373 359.454-59.277-102.686-26.909 46.616a22.5 22.5 0 0 1-38.972.001l-12.899-22.34-45.27 78.407a22.5 22.5 0 0 1-19.485 11.25h-30.375c-12.426 0-22.5-10.074-22.5-22.5V95.529c0-12.426 10.074-22.5 22.5-22.5h252.675c12.426 0 22.5 10.074 22.5 22.5v252.675c0 23.07-30.539 31.076-41.988 11.25z"/>
    <path style="fill:#39a3db" d="M404.861 73.029H278.523v241.566c.392.021.783.039 1.179.039a22.5 22.5 0 0 0 19.485-11.25l26.909-46.616 59.277 102.686c11.471 19.863 41.987 11.785 41.987-11.249V95.529c.001-12.426-10.073-22.5-22.499-22.5z"/>
    <path style="fill:#1da49c" d="m424.347 336.956-78.765-136.44c-8.658-14.994-30.332-14.967-38.973 0l-28.086 48.653v85.916l14.077 24.374c8.657 14.988 15.827 11.247 112.26 11.247 17.312-.002 28.126-18.785 19.487-33.75z"/>
    <path style="fill:#f2c500" d="M195.518 217.949c-36.737 0-65.838-26.073-65.838-42.713v-72.753c0-13.406 15.935-29.462 29.462-29.462h72.753c16.109 0 42.713 28.547 42.713 65.838-.001 43.61-35.481 79.09-79.09 79.09z"/>
    <path style="fill:#65c6bb" d="M312.084 370.704H182.559c-17.313 0-28.127-18.785-19.485-33.75l64.755-112.155c8.657-14.993 30.329-14.967 38.97-.002l64.769 112.152c8.659 14.995-2.199 33.755-19.484 33.755z"/>
    <path style="fill:#f2c500" d="M404.865 445.248H152.181c-12.426 0-22.5-10.074-22.5-22.5s10.074-22.5 22.5-22.5h252.684c12.426 0 22.5 10.074 22.5 22.5s-10.074 22.5-22.5 22.5z"/>
    <path style="fill:#ff423d" d="M79.158 118.023H34.113c-12.426 0-22.5-10.074-22.5-22.5s10.074-22.5 22.5-22.5h45.045c12.426 0 22.5 10.074 22.5 22.5s-10.074 22.5-22.5 22.5zM79.158 225.008H34.113c-12.426 0-22.5-10.074-22.5-22.5s10.074-22.5 22.5-22.5h45.045c12.426 0 22.5 10.074 22.5 22.5s-10.074 22.5-22.5 22.5zM79.158 331.992H34.113c-12.426 0-22.5-10.074-22.5-22.5s10.074-22.5 22.5-22.5h45.045c12.426 0 22.5 10.074 22.5 22.5s-10.074 22.5-22.5 22.5zM79.158 438.977H34.113c-12.426 0-22.5-10.074-22.5-22.5s10.074-22.5 22.5-22.5h45.045c12.426 0 22.5 10.074 22.5 22.5s-10.074 22.5-22.5 22.5z"/>
    <path style="fill:#d1d3d4" d="M334.86 174.543h-27.927c-12.426 0-22.5-10.074-22.5-22.5s10.074-22.5 22.5-22.5h27.927c12.426 0 22.5 10.074 22.5 22.5s-10.074 22.5-22.5 22.5z"/>
    <path style="fill:#57bdb7" d="m331.568 336.951-53.046-91.854v125.607h33.561c17.316 0 28.129-18.787 19.485-33.753z"/>
    <path style="fill:#f59d00" d="M404.865 400.248H278.523v45h126.342c12.426 0 22.5-10.074 22.5-22.5s-10.074-22.5-22.5-22.5z"/>
</svg>
